<svg width="90" height="90" viewBox="0 0 90 90" fill="none" xmlns="http://www.w3.org/2000/svg">
<path d="M71.25 15H67.5V7.5H60V15H30V7.5H22.5V15H18.75C14.5875 15 11.2875 18.375 11.2875 22.5L11.25 75C11.25 76.9891 12.0402 78.8968 13.4467 80.3033C14.8532 81.7098 16.7609 82.5 18.75 82.5H71.25C75.375 82.5 78.75 79.125 78.75 75V22.5C78.75 18.375 75.375 15 71.25 15ZM71.25 75H18.75V37.5H71.25V75ZM33.75 52.5H26.25V45H33.75V52.5ZM48.75 52.5H41.25V45H48.75V52.5ZM63.75 52.5H56.25V45H63.75V52.5ZM33.75 67.5H26.25V60H33.75V67.5ZM48.75 67.5H41.25V60H48.75V67.5ZM63.75 67.5H56.25V60H63.75V67.5Z" fill="#FF9A62"/>
</svg>
