<svg width="300" height="328" viewBox="0 0 300 328" fill="none" xmlns="http://www.w3.org/2000/svg">
<g filter="url(#filter0_d_77_152)">
<g filter="url(#filter1_d_77_152)">
<rect x="47" y="26" width="198" height="226" rx="24" fill="white"/>
</g>
<path d="M146 175.667C138.85 175.667 132.785 173.176 127.806 168.194C122.824 163.215 120.333 157.15 120.333 150C120.333 145.967 121.036 142.315 122.442 139.044C123.847 135.776 126.567 132.064 130.6 127.908C134.694 123.692 137.092 119.948 137.794 116.677C138.498 113.409 138.789 108.628 138.667 102.333C148.261 107.894 156.159 114.922 162.361 123.417C168.565 131.911 171.667 140.772 171.667 150C171.667 157.15 169.176 163.215 164.194 168.194C159.215 173.176 153.15 175.667 146 175.667ZM146 168.333C147.283 168.333 148.536 167.829 149.758 166.819C150.981 165.812 151.592 164.208 151.592 162.008C151.592 160.542 151.18 158.831 150.356 156.875C149.53 154.919 148.078 152.567 146 149.817C144.044 152.383 142.655 154.675 141.831 156.692C141.005 158.708 140.592 160.481 140.592 162.008C140.592 164.147 141.172 165.736 142.333 166.775C143.494 167.814 144.717 168.333 146 168.333ZM133.258 163.2C132.953 159.411 133.9 155.561 136.1 151.65C138.3 147.739 140.714 144.378 143.342 141.567C143.708 141.139 144.121 140.833 144.581 140.65C145.038 140.467 145.511 140.375 146 140.375C146.489 140.375 146.963 140.467 147.423 140.65C147.88 140.833 148.292 141.139 148.658 141.567C149.025 141.933 149.774 142.773 150.906 144.086C152.035 145.401 153.196 147.02 154.389 148.944C155.58 150.87 156.633 153.041 157.55 155.456C158.467 157.869 158.894 160.419 158.833 163.108C160.544 161.458 161.889 159.503 162.867 157.242C163.844 154.981 164.333 152.567 164.333 150C164.333 146.272 163.753 142.758 162.592 139.458C161.431 136.158 159.933 133.072 158.1 130.2C156.267 127.328 154.25 124.715 152.05 122.361C149.85 120.009 147.681 117.947 145.542 116.175C144.747 120.208 143.358 123.584 141.373 126.302C139.385 129.023 137.414 131.422 135.458 133.5C132.342 136.678 130.264 139.458 129.225 141.842C128.186 144.225 127.667 146.944 127.667 150C127.667 152.567 128.156 154.981 129.133 157.242C130.111 159.503 131.486 161.489 133.258 163.2Z" fill="#F24E1E"/>
<path d="M117.231 53.1V67H114.951V53.1H117.231ZM131.645 67H129.365L122.505 56.62V67H120.225V53.08H122.505L129.365 63.44V53.08H131.645V67ZM139.179 53.1C140.659 53.1 141.952 53.3867 143.059 53.96C144.179 54.52 145.039 55.3333 145.639 56.4C146.252 57.4533 146.559 58.6867 146.559 60.1C146.559 61.5133 146.252 62.74 145.639 63.78C145.039 64.82 144.179 65.62 143.059 66.18C141.952 66.7267 140.659 67 139.179 67H134.639V53.1H139.179ZM139.179 65.14C140.805 65.14 142.052 64.7 142.919 63.82C143.785 62.94 144.219 61.7 144.219 60.1C144.219 58.4867 143.785 57.2267 142.919 56.32C142.052 55.4133 140.805 54.96 139.179 54.96H136.919V65.14H139.179ZM151.098 53.1V67H148.818V53.1H151.098ZM153.332 60.02C153.332 58.66 153.645 57.44 154.272 56.36C154.912 55.28 155.772 54.44 156.852 53.84C157.945 53.2267 159.138 52.92 160.432 52.92C161.912 52.92 163.225 53.2867 164.372 54.02C165.532 54.74 166.372 55.7667 166.892 57.1H164.152C163.792 56.3667 163.292 55.82 162.652 55.46C162.012 55.1 161.272 54.92 160.432 54.92C159.512 54.92 158.692 55.1267 157.972 55.54C157.252 55.9533 156.685 56.5467 156.272 57.32C155.872 58.0933 155.672 58.9933 155.672 60.02C155.672 61.0467 155.872 61.9467 156.272 62.72C156.685 63.4933 157.252 64.0933 157.972 64.52C158.692 64.9333 159.512 65.14 160.432 65.14C161.272 65.14 162.012 64.96 162.652 64.6C163.292 64.24 163.792 63.6933 164.152 62.96H166.892C166.372 64.2933 165.532 65.32 164.372 66.04C163.225 66.76 161.912 67.12 160.432 67.12C159.125 67.12 157.932 66.82 156.852 66.22C155.772 65.6067 154.912 64.76 154.272 63.68C153.645 62.6 153.332 61.38 153.332 60.02ZM171.841 54.94V59.02H176.641V60.88H171.841V65.14H177.241V67H169.561V53.08H177.241V54.94H171.841ZM87.4334 80.02C87.4334 78.66 87.7467 77.44 88.3734 76.36C89.0134 75.28 89.8734 74.44 90.9534 73.84C92.0467 73.2267 93.24 72.92 94.5334 72.92C96.0134 72.92 97.3267 73.2867 98.4734 74.02C99.6334 74.74 100.473 75.7667 100.993 77.1H98.2534C97.8934 76.3667 97.3934 75.82 96.7534 75.46C96.1134 75.1 95.3734 74.92 94.5334 74.92C93.6134 74.92 92.7934 75.1267 92.0734 75.54C91.3534 75.9533 90.7867 76.5467 90.3734 77.32C89.9734 78.0933 89.7734 78.9933 89.7734 80.02C89.7734 81.0467 89.9734 81.9467 90.3734 82.72C90.7867 83.4933 91.3534 84.0933 92.0734 84.52C92.7934 84.9333 93.6134 85.14 94.5334 85.14C95.3734 85.14 96.1134 84.96 96.7534 84.6C97.3934 84.24 97.8934 83.6933 98.2534 82.96H100.993C100.473 84.2933 99.6334 85.32 98.4734 86.04C97.3267 86.76 96.0134 87.12 94.5334 87.12C93.2267 87.12 92.0334 86.82 90.9534 86.22C89.8734 85.6067 89.0134 84.76 88.3734 83.68C87.7467 82.6 87.4334 81.38 87.4334 80.02ZM112.042 84.16H106.222L105.222 87H102.842L107.822 73.08H110.462L115.442 87H113.042L112.042 84.16ZM111.402 82.3L109.142 75.84L106.862 82.3H111.402ZM119.887 85.16H124.587V87H117.607V73.1H119.887V85.16ZM132.834 87.14C131.541 87.14 130.347 86.84 129.254 86.24C128.174 85.6267 127.314 84.78 126.674 83.7C126.047 82.6067 125.734 81.38 125.734 80.02C125.734 78.66 126.047 77.44 126.674 76.36C127.314 75.28 128.174 74.44 129.254 73.84C130.347 73.2267 131.541 72.92 132.834 72.92C134.141 72.92 135.334 73.2267 136.414 73.84C137.507 74.44 138.367 75.28 138.994 76.36C139.621 77.44 139.934 78.66 139.934 80.02C139.934 81.38 139.621 82.6067 138.994 83.7C138.367 84.78 137.507 85.6267 136.414 86.24C135.334 86.84 134.141 87.14 132.834 87.14ZM132.834 85.16C133.754 85.16 134.574 84.9533 135.294 84.54C136.014 84.1133 136.574 83.5133 136.974 82.74C137.387 81.9533 137.594 81.0467 137.594 80.02C137.594 78.9933 137.387 78.0933 136.974 77.32C136.574 76.5467 136.014 75.9533 135.294 75.54C134.574 75.1267 133.754 74.92 132.834 74.92C131.914 74.92 131.094 75.1267 130.374 75.54C129.654 75.9533 129.087 76.5467 128.674 77.32C128.274 78.0933 128.074 78.9933 128.074 80.02C128.074 81.0467 128.274 81.9533 128.674 82.74C129.087 83.5133 129.654 84.1133 130.374 84.54C131.094 84.9533 131.914 85.16 132.834 85.16ZM149.398 87L146.198 81.44H144.458V87H142.178V73.1H146.978C148.044 73.1 148.944 73.2867 149.678 73.66C150.424 74.0333 150.978 74.5333 151.338 75.16C151.711 75.7867 151.898 76.4867 151.898 77.26C151.898 78.1667 151.631 78.9933 151.098 79.74C150.578 80.4733 149.771 80.9733 148.678 81.24L152.118 87H149.398ZM144.458 79.62H146.978C147.831 79.62 148.471 79.4067 148.898 78.98C149.338 78.5533 149.558 77.98 149.558 77.26C149.558 76.54 149.344 75.98 148.918 75.58C148.491 75.1667 147.844 74.96 146.978 74.96H144.458V79.62ZM157.094 73.1V87H154.814V73.1H157.094ZM168.268 73.1V74.96H162.368V79.06H166.968V80.92H162.368V87H160.088V73.1H168.268ZM172.661 73.1V87H170.381V73.1H172.661ZM174.894 80.02C174.894 78.66 175.208 77.44 175.834 76.36C176.474 75.28 177.334 74.44 178.414 73.84C179.508 73.2267 180.701 72.92 181.994 72.92C183.474 72.92 184.788 73.2867 185.934 74.02C187.094 74.74 187.934 75.7667 188.454 77.1H185.714C185.354 76.3667 184.854 75.82 184.214 75.46C183.574 75.1 182.834 74.92 181.994 74.92C181.074 74.92 180.254 75.1267 179.534 75.54C178.814 75.9533 178.248 76.5467 177.834 77.32C177.434 78.0933 177.234 78.9933 177.234 80.02C177.234 81.0467 177.434 81.9467 177.834 82.72C178.248 83.4933 178.814 84.0933 179.534 84.52C180.254 84.9333 181.074 85.14 181.994 85.14C182.834 85.14 183.574 84.96 184.214 84.6C184.854 84.24 185.354 83.6933 185.714 82.96H188.454C187.934 84.2933 187.094 85.32 185.934 86.04C184.788 86.76 183.474 87.12 181.994 87.12C180.688 87.12 179.494 86.82 178.414 86.22C177.334 85.6067 176.474 84.76 175.834 83.68C175.208 82.6 174.894 81.38 174.894 80.02ZM197.463 87.14C196.17 87.14 194.976 86.84 193.883 86.24C192.803 85.6267 191.943 84.78 191.303 83.7C190.676 82.6067 190.363 81.38 190.363 80.02C190.363 78.66 190.676 77.44 191.303 76.36C191.943 75.28 192.803 74.44 193.883 73.84C194.976 73.2267 196.17 72.92 197.463 72.92C198.77 72.92 199.963 73.2267 201.043 73.84C202.136 74.44 202.996 75.28 203.623 76.36C204.25 77.44 204.563 78.66 204.563 80.02C204.563 81.38 204.25 82.6067 203.623 83.7C202.996 84.78 202.136 85.6267 201.043 86.24C199.963 86.84 198.77 87.14 197.463 87.14ZM197.463 85.16C198.383 85.16 199.203 84.9533 199.923 84.54C200.643 84.1133 201.203 83.5133 201.603 82.74C202.016 81.9533 202.223 81.0467 202.223 80.02C202.223 78.9933 202.016 78.0933 201.603 77.32C201.203 76.5467 200.643 75.9533 199.923 75.54C199.203 75.1267 198.383 74.92 197.463 74.92C196.543 74.92 195.723 75.1267 195.003 75.54C194.283 75.9533 193.716 76.5467 193.303 77.32C192.903 78.0933 192.703 78.9933 192.703 80.02C192.703 81.0467 192.903 81.9533 193.303 82.74C193.716 83.5133 194.283 84.1133 195.003 84.54C195.723 84.9533 196.543 85.16 197.463 85.16Z" fill="#535353"/>
<path d="M130.015 216.592V213.952L137.863 202.72H141.775V213.664H143.887V216.592H141.775V220H138.415V216.592H130.015ZM138.631 206.32L133.711 213.664H138.631V206.32ZM145.618 205.6V202.504H151.402V220H147.946V205.6H145.618ZM154.097 207.352C154.097 206.04 154.529 205 155.393 204.232C156.273 203.464 157.409 203.08 158.801 203.08C160.177 203.08 161.297 203.472 162.161 204.256C163.025 205.024 163.457 206.056 163.457 207.352C163.457 208.664 163.017 209.712 162.137 210.496C161.273 211.28 160.145 211.672 158.753 211.672C157.377 211.672 156.257 211.28 155.393 210.496C154.529 209.712 154.097 208.664 154.097 207.352ZM160.817 207.376C160.817 206.592 160.617 205.992 160.217 205.576C159.817 205.144 159.329 204.928 158.753 204.928C158.193 204.928 157.713 205.144 157.313 205.576C156.913 205.992 156.713 206.592 156.713 207.376C156.713 208.144 156.905 208.736 157.289 209.152C157.689 209.568 158.177 209.776 158.753 209.776C159.313 209.776 159.793 209.568 160.193 209.152C160.609 208.736 160.817 208.144 160.817 207.376Z" fill="#535353"/>
</g>
<defs>
<filter id="filter0_d_77_152" x="43" y="26" width="206" height="234" filterUnits="userSpaceOnUse" color-interpolation-filters="sRGB">
<feFlood flood-opacity="0" result="BackgroundImageFix"/>
<feColorMatrix in="SourceAlpha" type="matrix" values="0 0 0 0 0 0 0 0 0 0 0 0 0 0 0 0 0 0 127 0" result="hardAlpha"/>
<feOffset dy="4"/>
<feGaussianBlur stdDeviation="2"/>
<feComposite in2="hardAlpha" operator="out"/>
<feColorMatrix type="matrix" values="0 0 0 0 0 0 0 0 0 0 0 0 0 0 0 0 0 0 0.25 0"/>
<feBlend mode="normal" in2="BackgroundImageFix" result="effect1_dropShadow_77_152"/>
<feBlend mode="normal" in="SourceGraphic" in2="effect1_dropShadow_77_152" result="shape"/>
</filter>
<filter id="filter1_d_77_152" x="0" y="0" width="300" height="328" filterUnits="userSpaceOnUse" color-interpolation-filters="sRGB">
<feFlood flood-opacity="0" result="BackgroundImageFix"/>
<feColorMatrix in="SourceAlpha" type="matrix" values="0 0 0 0 0 0 0 0 0 0 0 0 0 0 0 0 0 0 127 0" result="hardAlpha"/>
<feMorphology radius="1" operator="dilate" in="SourceAlpha" result="effect1_dropShadow_77_152"/>
<feOffset dx="4" dy="25"/>
<feGaussianBlur stdDeviation="25"/>
<feComposite in2="hardAlpha" operator="out"/>
<feColorMatrix type="matrix" values="0 0 0 0 0 0 0 0 0 0 0 0 0 0 0 0 0 0 0.25 0"/>
<feBlend mode="normal" in2="BackgroundImageFix" result="effect1_dropShadow_77_152"/>
<feBlend mode="normal" in="SourceGraphic" in2="effect1_dropShadow_77_152" result="shape"/>
</filter>
</defs>
</svg>
