<svg width="104" height="104" viewBox="0 0 104 104" fill="none" xmlns="http://www.w3.org/2000/svg">
<g clip-path="url(#clip0_77_204)" filter="url(#filter0_d_77_204)">
<path d="M28.948 72.15C29.322 72.2747 29.6678 72.4719 29.9655 72.7303C30.2633 72.9887 30.5071 73.3033 30.6832 73.656C30.8593 74.0088 30.9641 74.3928 30.9917 74.786C31.0193 75.1793 30.9691 75.5742 30.844 75.948L27.844 84.948C27.5709 85.6743 27.027 86.2665 26.3265 86.6003C25.626 86.9341 24.8235 86.9834 24.0873 86.7381C23.3512 86.4927 22.7388 85.9716 22.3787 85.2843C22.0186 84.597 21.9388 83.7969 22.156 83.052L25.156 74.052C25.4067 73.297 25.947 72.6725 26.6582 72.3158C27.3693 71.9591 28.193 71.8995 28.948 72.15ZM46.948 72.15C47.322 72.2747 47.6678 72.4719 47.9655 72.7303C48.2633 72.9887 48.5071 73.3033 48.6832 73.656C48.8593 74.0088 48.9641 74.3928 48.9917 74.786C49.0193 75.1793 48.9691 75.5742 48.844 75.948L42.844 93.948C42.5709 94.6743 42.027 95.2665 41.3265 95.6003C40.626 95.9341 39.8235 95.9834 39.0873 95.7381C38.3512 95.4927 37.7388 94.9716 37.3787 94.2843C37.0186 93.597 36.9388 92.7969 37.156 92.052L43.156 74.052C43.4067 73.297 43.947 72.6725 44.6582 72.3158C45.3693 71.9591 46.193 71.8995 46.948 72.15ZM64.948 72.15C65.322 72.2747 65.6678 72.4719 65.9655 72.7303C66.2633 72.9887 66.5071 73.3033 66.6832 73.656C66.8593 74.0088 66.9641 74.3928 66.9917 74.786C67.0193 75.1793 66.9691 75.5742 66.844 75.948L63.844 84.948C63.5709 85.6743 63.027 86.2665 62.3265 86.6003C61.626 86.9341 60.8235 86.9834 60.0873 86.7381C59.3512 86.4927 58.7388 85.9716 58.3787 85.2843C58.0186 84.597 57.9388 83.7969 58.156 83.052L61.156 74.052C61.4067 73.297 61.947 72.6725 62.6582 72.3158C63.3693 71.9591 64.193 71.8995 64.948 72.15ZM82.948 72.15C83.322 72.2747 83.6678 72.4719 83.9655 72.7303C84.2633 72.9887 84.5071 73.3033 84.6832 73.656C84.8593 74.0088 84.9641 74.3928 84.9917 74.786C85.0193 75.1793 84.9691 75.5742 84.844 75.948L78.844 93.948C78.731 94.3354 78.541 94.6961 78.2854 95.0083C78.0298 95.3206 77.7138 95.5781 77.3563 95.7654C76.9989 95.9526 76.6073 96.0659 76.2051 96.0983C75.8028 96.1307 75.3982 96.0817 75.0153 95.9541C74.6325 95.8265 74.2793 95.6229 73.977 95.3556C73.6747 95.0883 73.4294 94.7628 73.2558 94.3985C73.0822 94.0342 72.9839 93.6386 72.9667 93.2354C72.9496 92.8322 73.014 92.4297 73.156 92.052L79.156 74.052C79.4067 73.297 79.947 72.6725 80.6582 72.3158C81.3693 71.9591 82.193 71.8995 82.948 72.15ZM84.43 30.162C83.184 23.881 79.9614 18.1633 75.2332 13.8449C70.5051 9.52651 64.5194 6.83394 58.1515 6.16088C51.7835 5.48781 45.3673 6.86956 39.8408 10.1041C34.3143 13.3386 29.9676 18.2563 27.436 24.138C24.597 23.811 21.7212 24.0668 18.9845 24.8899C16.2479 25.7129 13.708 27.0859 11.5204 28.9247C9.33282 30.7635 7.54355 33.0294 6.26215 35.5838C4.98076 38.1381 4.2342 40.9272 4.06818 43.7801C3.90217 46.633 4.32019 49.4898 5.29666 52.1756C6.27313 54.8613 7.78749 57.3195 9.74703 59.3996C11.7066 61.4798 14.0701 63.138 16.6928 64.273C19.3155 65.4079 22.1423 65.9956 25 66H82C86.5667 66.0052 90.9646 64.2745 94.3029 61.1584C97.6413 58.0424 99.6704 53.7739 99.9794 49.2177C100.288 44.6615 98.8539 40.1582 95.9668 36.62C93.0796 33.0819 88.9556 30.7733 84.43 30.162ZM55 12C60.9038 11.9988 66.6008 14.1736 71.0019 18.1087C75.403 22.0438 78.1992 27.4629 78.856 33.33C78.9376 34.0672 79.2893 34.748 79.8433 35.2411C80.3974 35.7341 81.1144 36.0045 81.856 36H82C85.1826 36 88.2349 37.2643 90.4853 39.5147C92.7357 41.7652 94 44.8174 94 48C94 51.1826 92.7357 54.2349 90.4853 56.4853C88.2349 58.7357 85.1826 60 82 60H25C22.8765 59.999 20.7773 59.547 18.8415 58.6741C16.9056 57.8012 15.1772 56.5272 13.7705 54.9363C12.3638 53.3455 11.3109 51.4742 10.6815 49.446C10.0521 47.4179 9.86049 45.2792 10.1194 43.1715C10.3782 41.0638 11.0817 39.035 12.1832 37.2195C13.2846 35.4039 14.7591 33.843 16.5089 32.6398C18.2588 31.4367 20.2441 30.6188 22.3337 30.2403C24.4232 29.8617 26.5693 29.9312 28.63 30.444C29.3652 30.6274 30.1425 30.5258 30.8059 30.1596C31.4692 29.7934 31.9694 29.1898 32.206 28.47C33.7917 23.6771 36.8477 19.5058 40.9397 16.5491C45.0317 13.5924 49.9516 12.0006 55 12Z" fill="#577EC8"/>
</g>
<defs>
<filter id="filter0_d_77_204" x="0" y="0" width="104" height="104" filterUnits="userSpaceOnUse" color-interpolation-filters="sRGB">
<feFlood flood-opacity="0" result="BackgroundImageFix"/>
<feColorMatrix in="SourceAlpha" type="matrix" values="0 0 0 0 0 0 0 0 0 0 0 0 0 0 0 0 0 0 127 0" result="hardAlpha"/>
<feOffset dy="4"/>
<feGaussianBlur stdDeviation="2"/>
<feComposite in2="hardAlpha" operator="out"/>
<feColorMatrix type="matrix" values="0 0 0 0 0 0 0 0 0 0 0 0 0 0 0 0 0 0 0.25 0"/>
<feBlend mode="normal" in2="BackgroundImageFix" result="effect1_dropShadow_77_204"/>
<feBlend mode="normal" in="SourceGraphic" in2="effect1_dropShadow_77_204" result="shape"/>
</filter>
<clipPath id="clip0_77_204">
<rect width="96" height="96" fill="white" transform="translate(4)"/>
</clipPath>
</defs>
</svg>
