<?xml version="1.0" encoding="utf-8"?>
<!-- Generator: Adobe Illustrator 25.2.1, SVG Export Plug-In . SVG Version: 6.00 Build 0)  -->
<svg version="1.1" id="Capa_1" xmlns="http://www.w3.org/2000/svg" xmlns:xlink="http://www.w3.org/1999/xlink" x="0px" y="0px"
	 viewBox="0 0 96 96" style="enable-background:new 0 0 96 96;" xml:space="preserve">
<style type="text/css">
	.st0{clip-path:url(#SVGID_2_);}
	.st1{fill:#FDC912;}
	.st2{fill:#4365A3;}
</style>
<g>
	<defs>
		<rect id="SVGID_1_" x="2.6" y="2.6" width="90.7" height="90.7"/>
	</defs>
	<clipPath id="SVGID_2_">
		<use xlink:href="#SVGID_1_"  style="overflow:visible;"/>
	</clipPath>
	<g class="st0">
		<path class="st1" d="M18.6,66.1c0.7,0.2,1.3,0.7,1.6,1.4c0.3,0.7,0.4,1.5,0.2,2.2l-2.8,8.5c-0.1,0.4-0.3,0.7-0.5,1
			c-0.2,0.3-0.5,0.5-0.9,0.7c-0.3,0.2-0.7,0.3-1.1,0.3c-0.4,0-0.8,0-1.1-0.1c-0.4-0.1-0.7-0.3-1-0.6c-0.3-0.3-0.5-0.6-0.7-0.9
			c-0.2-0.3-0.3-0.7-0.3-1.1s0-0.8,0.2-1.1l2.8-8.5c0.2-0.7,0.7-1.3,1.4-1.6C17.1,65.9,17.9,65.9,18.6,66.1z M72.5,66.1
			c0.7,0.2,1.3,0.7,1.6,1.4c0.3,0.7,0.4,1.5,0.2,2.2l-2.8,8.5c-0.1,0.4-0.3,0.7-0.5,1c-0.2,0.3-0.5,0.5-0.9,0.7
			c-0.3,0.2-0.7,0.3-1.1,0.3c-0.4,0-0.8,0-1.1-0.1c-0.4-0.1-0.7-0.3-1-0.6c-0.3-0.3-0.5-0.6-0.7-0.9c-0.2-0.3-0.3-0.7-0.3-1.1
			c0-0.4,0-0.8,0.2-1.1l2.8-8.5c0.2-0.7,0.7-1.3,1.4-1.6C71,65.9,71.8,65.9,72.5,66.1z M30,74.6c0.7,0.2,1.3,0.7,1.6,1.4
			c0.3,0.7,0.4,1.5,0.2,2.2l-2.8,8.5c-0.1,0.4-0.3,0.7-0.5,1c-0.2,0.3-0.5,0.5-0.9,0.7c-0.3,0.2-0.7,0.3-1.1,0.3
			c-0.4,0-0.8,0-1.1-0.1c-0.4-0.1-0.7-0.3-1-0.6c-0.3-0.3-0.5-0.6-0.7-0.9c-0.2-0.3-0.3-0.7-0.3-1.1c0-0.4,0-0.8,0.2-1.1l2.8-8.5
			c0.2-0.7,0.7-1.3,1.4-1.6C28.5,74.4,29.2,74.4,30,74.6z M83.8,74.6c0.7,0.2,1.3,0.7,1.6,1.4c0.3,0.7,0.4,1.5,0.2,2.2l-2.8,8.5
			c-0.1,0.4-0.3,0.7-0.5,1c-0.2,0.3-0.5,0.5-0.9,0.7c-0.3,0.2-0.7,0.3-1.1,0.3c-0.4,0-0.8,0-1.1-0.1c-0.4-0.1-0.7-0.3-1-0.6
			c-0.3-0.3-0.5-0.6-0.7-0.9c-0.2-0.3-0.3-0.7-0.3-1.1c0-0.4,0-0.8,0.2-1.1l2.8-8.5c0.2-0.7,0.7-1.3,1.4-1.6
			C82.3,74.4,83.1,74.4,83.8,74.6z M79.6,26.4c-1.2-5.9-4.2-11.3-8.7-15.4c-4.5-4.1-10.1-6.6-16.1-7.3c-6-0.6-12.1,0.7-17.3,3.7
			c-5.2,3.1-9.3,7.7-11.7,13.3c-2.7-0.3-5.4-0.1-8,0.7c-2.6,0.8-5,2.1-7.1,3.8c-2.1,1.7-3.8,3.9-5,6.3c-1.2,2.4-1.9,5.1-2.1,7.7
			c-0.2,2.7,0.2,5.4,1.2,7.9c0.9,2.5,2.4,4.9,4.2,6.8c1.9,2,4.1,3.5,6.6,4.6c2.5,1.1,5.2,1.6,7.9,1.6h53.9c4.3,0,8.5-1.6,11.6-4.6
			c3.2-2.9,5.1-7,5.4-11.3c0.3-4.3-1.1-8.6-3.8-11.9C87.7,29.2,83.8,27,79.6,26.4z M51.8,9.2c5.6,0,11,2.1,15.1,5.8
			c4.2,3.7,6.8,8.8,7.4,14.4c0.1,0.7,0.4,1.3,0.9,1.8c0.5,0.5,1.2,0.7,1.9,0.7h0.1c3,0,5.9,1.2,8,3.3c2.1,2.1,3.3,5,3.3,8
			c0,3-1.2,5.9-3.3,8c-2.1,2.1-5,3.3-8,3.3H23.4c-2,0-4-0.4-5.8-1.3c-1.8-0.8-3.5-2-4.8-3.5c-1.3-1.5-2.3-3.3-2.9-5.2
			c-0.6-1.9-0.8-3.9-0.5-5.9c0.2-2,0.9-3.9,2-5.6c1-1.7,2.4-3.2,4.1-4.3s3.5-1.9,5.5-2.3c2-0.4,4-0.3,6,0.2c0.7,0.2,1.4,0.1,2.1-0.3
			c0.6-0.3,1.1-0.9,1.3-1.6c1.5-4.5,4.4-8.5,8.3-11.3C42.3,10.8,47,9.3,51.8,9.2z M43.5,67.5c0.2-0.5,0.6-0.9,1-1.1
			c0.4-0.3,1-0.4,1.5-0.4h5.7c0.4,0,0.9,0.1,1.3,0.3c0.4,0.2,0.7,0.5,1,0.9c0.3,0.4,0.4,0.8,0.5,1.2c0.1,0.4,0,0.9-0.1,1.3l-1.6,4.8
			h4.6c0.5,0,1.1,0.2,1.5,0.4c0.5,0.3,0.8,0.7,1,1.2c0.2,0.5,0.3,1,0.3,1.5c-0.1,0.5-0.3,1-0.6,1.4L48.3,93.3c-0.4,0.5-1,0.9-1.6,1
			c-0.6,0.1-1.3,0.1-1.9-0.2c-0.6-0.3-1-0.8-1.3-1.3c-0.3-0.6-0.3-1.2-0.2-1.9l2-7.8h-4.9c-0.5,0-1-0.1-1.4-0.4
			c-0.4-0.2-0.8-0.6-1-1c-0.3-0.4-0.4-0.9-0.4-1.4c0-0.5,0.1-1,0.3-1.4L43.5,67.5z"/>
		<path class="st2" d="M17.7,65.2c0.7,0.2,1.3,0.7,1.6,1.4c0.3,0.7,0.4,1.5,0.2,2.2l-2.8,8.5c-0.1,0.4-0.3,0.7-0.5,1
			c-0.2,0.3-0.5,0.5-0.9,0.7c-0.3,0.2-0.7,0.3-1.1,0.3c-0.4,0-0.8,0-1.1-0.1c-0.4-0.1-0.7-0.3-1-0.6c-0.3-0.3-0.5-0.6-0.7-0.9
			c-0.2-0.3-0.3-0.7-0.3-1.1c0-0.4,0-0.8,0.2-1.1l2.8-8.5c0.2-0.7,0.7-1.3,1.4-1.6C16.2,65,17,64.9,17.7,65.2z M71.6,65.2
			c0.7,0.2,1.3,0.7,1.6,1.4c0.3,0.7,0.4,1.5,0.2,2.2l-2.8,8.5c-0.1,0.4-0.3,0.7-0.5,1c-0.2,0.3-0.5,0.5-0.9,0.7
			c-0.3,0.2-0.7,0.3-1.1,0.3c-0.4,0-0.8,0-1.1-0.1c-0.4-0.1-0.7-0.3-1-0.6c-0.3-0.3-0.5-0.6-0.7-0.9C65.1,77.3,65,77,65,76.6
			c0-0.4,0-0.8,0.2-1.1L68,67c0.2-0.7,0.7-1.3,1.4-1.6C70.1,65,70.9,64.9,71.6,65.2z M29,73.7c0.7,0.2,1.3,0.7,1.6,1.4
			c0.3,0.7,0.4,1.5,0.2,2.2L28,85.8c-0.1,0.4-0.3,0.7-0.5,1c-0.2,0.3-0.5,0.5-0.9,0.7c-0.3,0.2-0.7,0.3-1.1,0.3
			c-0.4,0-0.8,0-1.1-0.1c-0.4-0.1-0.7-0.3-1-0.6c-0.3-0.3-0.5-0.6-0.7-0.9c-0.2-0.3-0.3-0.7-0.3-1.1c0-0.4,0-0.8,0.2-1.1l2.8-8.5
			c0.2-0.7,0.7-1.3,1.4-1.6C27.6,73.5,28.3,73.4,29,73.7z M82.9,73.7c0.7,0.2,1.3,0.7,1.6,1.4c0.3,0.7,0.4,1.5,0.2,2.2l-2.8,8.5
			c-0.1,0.4-0.3,0.7-0.5,1c-0.2,0.3-0.5,0.5-0.9,0.7c-0.3,0.2-0.7,0.3-1.1,0.3c-0.4,0-0.8,0-1.1-0.1c-0.4-0.1-0.7-0.3-1-0.6
			c-0.3-0.3-0.5-0.6-0.7-0.9c-0.2-0.3-0.3-0.7-0.3-1.1c0-0.4,0-0.8,0.2-1.1l2.8-8.5c0.2-0.7,0.7-1.3,1.4-1.6
			C81.4,73.5,82.2,73.4,82.9,73.7z M78.7,25.5C77.5,19.5,74.4,14.1,70,10C65.5,6,59.8,3.4,53.8,2.8c-6-0.6-12.1,0.7-17.3,3.7
			c-5.2,3.1-9.3,7.7-11.7,13.3c-2.7-0.3-5.4-0.1-8,0.7c-2.6,0.8-5,2.1-7.1,3.8c-2.1,1.7-3.8,3.9-5,6.3c-1.2,2.4-1.9,5.1-2.1,7.7
			c-0.2,2.7,0.2,5.4,1.2,7.9c0.9,2.5,2.4,4.9,4.2,6.8c1.9,2,4.1,3.5,6.6,4.6c2.5,1.1,5.2,1.6,7.9,1.6h53.9c4.3,0,8.5-1.6,11.6-4.6
			c3.2-2.9,5.1-7,5.4-11.3c0.3-4.3-1.1-8.6-3.8-11.9C86.8,28.2,82.9,26,78.7,25.5z M50.8,8.3c5.6,0,11,2.1,15.1,5.8
			c4.2,3.7,6.8,8.8,7.4,14.4c0.1,0.7,0.4,1.3,0.9,1.8c0.5,0.5,1.2,0.7,1.9,0.7h0.1c3,0,5.9,1.2,8,3.3c2.1,2.1,3.3,5,3.3,8
			s-1.2,5.9-3.3,8c-2.1,2.1-5,3.3-8,3.3H22.5c-2,0-4-0.4-5.8-1.3c-1.8-0.8-3.5-2-4.8-3.5c-1.3-1.5-2.3-3.3-2.9-5.2
			c-0.6-1.9-0.8-3.9-0.5-5.9c0.2-2,0.9-3.9,2-5.6c1-1.7,2.4-3.2,4.1-4.3c1.7-1.1,3.5-1.9,5.5-2.3c2-0.4,4-0.3,6,0.2
			c0.7,0.2,1.4,0.1,2.1-0.3c0.6-0.3,1.1-0.9,1.3-1.6c1.5-4.5,4.4-8.5,8.3-11.3C41.4,9.8,46.1,8.3,50.8,8.3z M42.6,66.6
			c0.2-0.5,0.6-0.9,1-1.1c0.4-0.3,1-0.4,1.5-0.4h5.7c0.4,0,0.9,0.1,1.3,0.3s0.7,0.5,1,0.9c0.3,0.4,0.4,0.8,0.5,1.2
			c0.1,0.4,0,0.9-0.1,1.3l-1.6,4.8h4.6c0.5,0,1.1,0.2,1.5,0.4c0.5,0.3,0.8,0.7,1,1.2c0.2,0.5,0.3,1,0.3,1.5c-0.1,0.5-0.3,1-0.6,1.4
			L47.4,92.3c-0.4,0.5-1,0.9-1.6,1c-0.6,0.1-1.3,0.1-1.9-0.2c-0.6-0.3-1-0.8-1.3-1.3c-0.3-0.6-0.3-1.2-0.2-1.9l2-7.8h-4.9
			c-0.5,0-1-0.1-1.4-0.4c-0.4-0.2-0.8-0.6-1-1c-0.3-0.4-0.4-0.9-0.4-1.4c0-0.5,0.1-1,0.3-1.4L42.6,66.6z"/>
	</g>
</g>
</svg>
