<svg width="90" height="90" viewBox="0 0 90 90" fill="none" xmlns="http://www.w3.org/2000/svg">
<path d="M67.5 28.125C65.275 28.125 63.0999 27.4652 61.2498 26.229C59.3998 24.9929 57.9578 23.2359 57.1064 21.1802C56.2549 19.1245 56.0321 16.8625 56.4662 14.6802C56.9002 12.498 57.9717 10.4934 59.5451 8.92005C61.1184 7.34671 63.1229 6.27525 65.3052 5.84117C67.4875 5.40709 69.7495 5.62987 71.8052 6.48136C73.8609 7.33285 75.6179 8.77479 76.854 10.6248C78.0902 12.4749 78.75 14.65 78.75 16.875C78.7463 19.8575 77.5598 22.7169 75.4508 24.8258C73.3419 26.9348 70.4825 28.1213 67.5 28.125ZM67.5 11.25C66.3875 11.25 65.2999 11.5799 64.3749 12.198C63.4499 12.8161 62.7289 13.6946 62.3032 14.7224C61.8774 15.7502 61.766 16.8812 61.9831 17.9724C62.2001 19.0635 62.7359 20.0658 63.5225 20.8525C64.3092 21.6392 65.3115 22.1749 66.4026 22.3919C67.4938 22.609 68.6248 22.4976 69.6526 22.0718C70.6804 21.6461 71.5589 20.9251 72.177 20.0001C72.7951 19.0751 73.125 17.9875 73.125 16.875C73.1235 15.3836 72.5304 13.9537 71.4758 12.8992C70.4213 11.8446 68.9914 11.2515 67.5 11.25ZM40.7812 84.375C36.6875 84.378 32.7597 82.7569 29.8598 79.8675C26.9598 76.9781 25.3244 73.0562 25.3125 68.9625C25.3125 59.2791 37.53 9.86063 38.0531 7.7625C38.2055 7.15437 38.5568 6.61459 39.0511 6.2289C39.5453 5.84322 40.1543 5.63374 40.7812 5.63374C41.4082 5.63374 42.0172 5.84322 42.5114 6.2289C43.0057 6.61459 43.357 7.15437 43.5094 7.7625C44.0325 9.86063 56.25 59.2791 56.25 68.9625C56.2381 73.0562 54.6027 76.9781 51.7027 79.8675C48.8028 82.7569 44.875 84.378 40.7812 84.375ZM40.7812 20.3738C36.675 37.6313 30.9375 63.0253 30.9375 68.9625C30.9375 71.5732 31.9746 74.077 33.8207 75.9231C35.6667 77.7691 38.1705 78.8063 40.7812 78.8063C43.392 78.8063 45.8958 77.7691 47.7418 75.9231C49.5879 74.077 50.625 71.5732 50.625 68.9625C50.625 63.0253 44.8875 37.6313 40.7812 20.3738Z" fill="#699BF7"/>
</svg>
