<svg width="96" height="96" viewBox="0 0 96 96" fill="none" xmlns="http://www.w3.org/2000/svg">
<path d="M49.71 11.2725C49.4988 11.0258 49.2366 10.8278 48.9416 10.692C48.6466 10.5562 48.3257 10.4859 48.0009 10.4859C47.6762 10.4859 47.3553 10.5562 47.0602 10.692C46.7652 10.8278 46.5031 11.0258 46.2919 11.2725C40.3556 18.2156 21 42.2194 21 60C21 76.5694 31.4325 87 48 87C64.5675 87 75 76.5694 75 60C75 42.2194 55.6444 18.2156 49.71 11.2725ZM51 77.25C50.6396 77.2508 50.2843 77.165 49.964 76.9999C49.6437 76.8347 49.3678 76.5951 49.1594 76.3011C48.951 76.007 48.8163 75.6673 48.7666 75.3103C48.7169 74.9534 48.7536 74.5898 48.8738 74.25C49.0272 73.8067 49.3165 73.4231 49.7007 73.1537C50.0848 72.8844 50.5441 72.7431 51.0131 72.75C53.9914 72.7436 56.8458 71.5576 58.9517 69.4517C61.0576 67.3458 62.2436 64.4914 62.25 61.5131C62.2431 61.0441 62.3844 60.5848 62.6537 60.2007C62.9231 59.8166 63.3067 59.5272 63.75 59.3738C64.0898 59.2536 64.4534 59.2169 64.8103 59.2666C65.1673 59.3163 65.507 59.451 65.8011 59.6594C66.0951 59.8678 66.3347 60.1437 66.4999 60.464C66.665 60.7843 66.7508 61.1396 66.75 61.5C66.7455 65.6758 65.0847 69.6793 62.132 72.632C59.1793 75.5847 55.1758 77.2455 51 77.25Z" fill="#699BF7"/>
</svg>
