<svg width="88" height="88" viewBox="0 0 88 88" fill="none" xmlns="http://www.w3.org/2000/svg">
<path d="M44 80.6666C36.85 80.6666 30.7853 78.1758 25.806 73.194C20.8242 68.2146 18.3333 62.15 18.3333 55C18.3333 50.9666 19.0361 47.3146 20.4417 44.044C21.8472 40.7758 24.5667 37.0639 28.6 32.9083C32.6944 28.6916 35.0924 24.948 35.794 21.6773C36.498 18.4091 36.7889 13.6278 36.6667 7.33331C46.2611 12.8944 54.1591 19.9222 60.3607 28.4166C66.5647 36.9111 69.6667 45.7722 69.6667 55C69.6667 62.15 67.1758 68.2146 62.194 73.194C57.2147 78.1758 51.15 80.6666 44 80.6666ZM44 73.3333C45.2833 73.3333 46.5361 72.8285 47.7583 71.819C48.9806 70.8119 49.5917 69.2083 49.5917 67.0083C49.5917 65.5416 49.1798 63.8305 48.356 61.875C47.5298 59.9194 46.0778 57.5666 44 54.8166C42.0444 57.3833 40.6548 59.675 39.831 61.6917C39.0048 63.7083 38.5917 65.4805 38.5917 67.0083C38.5917 69.1472 39.1722 70.7361 40.3333 71.775C41.4944 72.8139 42.7167 73.3333 44 73.3333ZM31.2583 68.2C30.9528 64.4111 31.9 60.5611 34.1 56.65C36.3 52.7389 38.7139 49.3778 41.3417 46.5666C41.7083 46.1389 42.1214 45.8333 42.581 45.65C43.0381 45.4666 43.5111 45.375 44 45.375C44.4889 45.375 44.9631 45.4666 45.4227 45.65C45.8798 45.8333 46.2917 46.1389 46.6583 46.5666C47.025 46.9333 47.7742 47.773 48.906 49.0856C50.0353 50.4008 51.1964 52.0202 52.3893 53.944C53.5798 55.8702 54.6333 58.0409 55.55 60.456C56.4667 62.8687 56.8944 65.4194 56.8333 68.1083C58.5444 66.4583 59.8889 64.5028 60.8667 62.2416C61.8444 59.9805 62.3333 57.5666 62.3333 55C62.3333 51.2722 61.7528 47.7583 60.5917 44.4583C59.4306 41.1583 57.9333 38.0722 56.1 35.2C54.2667 32.3278 52.25 29.7146 50.05 27.3606C47.85 25.0091 45.6806 22.9472 43.5417 21.175C42.7472 25.2083 41.3576 28.5841 39.3727 31.3023C37.3853 34.023 35.4139 36.4222 33.4583 38.5C30.3417 41.6778 28.2639 44.4583 27.225 46.8416C26.1861 49.225 25.6667 51.9444 25.6667 55C25.6667 57.5666 26.1556 59.9805 27.1333 62.2416C28.1111 64.5028 29.4861 66.4889 31.2583 68.2Z" fill="#F24E1E"/>
</svg>
