<svg width="90" height="90" viewBox="0 0 90 90" fill="none" xmlns="http://www.w3.org/2000/svg">
<path d="M41.25 3.75L50.2125 16.575C47.4375 15.5625 44.4 15 41.25 15C38.1 15 35.0625 15.5625 32.2875 16.575L41.25 3.75ZM8.77502 22.5L24.375 21.1875C22.0476 23.1534 20.0697 25.499 18.525 28.125C16.875 30.9 15.9375 33.75 15.4125 36.7125L8.77502 22.5ZM8.85002 60L15.45 45.8625C16.5524 51.9094 19.7042 57.392 24.375 61.3875L8.85002 60ZM73.6875 22.5L67.05 36.7125C65.988 30.6404 62.8296 25.1331 58.125 21.15L73.6875 22.5ZM86.25 48.75H78.75C78.75 56.4375 75.825 64.125 69.975 69.975C67.1925 72.7675 63.884 74.9809 60.2409 76.487C56.5977 77.9932 52.6922 78.7624 48.75 78.75V86.25C58.35 86.25 67.95 82.5 75.2625 75.2625C82.575 68.025 86.25 58.35 86.25 48.75ZM71.25 48.75H63.75C63.75 52.5 62.2875 56.4375 59.3625 59.3625C56.4375 62.2875 52.5 63.75 48.75 63.75V71.25C51.7063 71.2554 54.6345 70.6772 57.3668 69.5484C60.0991 68.4196 62.5816 66.7624 64.672 64.672C66.7624 62.5816 68.4196 60.0991 69.5484 57.3668C70.6772 54.6345 71.2555 51.7063 71.25 48.75ZM41.25 30C47.4375 30 52.5 35.0625 52.5 41.25C52.5 47.4375 47.4375 52.5 41.25 52.5C35.0625 52.5 30 47.4375 30 41.25C30 35.0625 35.0625 30 41.25 30ZM41.25 22.5C30.9 22.5 22.5 30.9 22.5 41.25C22.5 51.6 30.9 60 41.25 60C51.6 60 60 51.6 60 41.25C60 30.9 51.6 22.5 41.25 22.5Z" fill="#FFC700"/>
</svg>
