<svg width="96" height="96" viewBox="0 0 96 96" fill="none" xmlns="http://www.w3.org/2000/svg">
<path d="M78.1969 43.9875C76.3769 39.8911 73.7311 36.2145 70.425 33.1875L67.6969 30.6844C67.6042 30.6017 67.4928 30.543 67.3722 30.5135C67.2516 30.484 67.1256 30.4846 67.0053 30.5151C66.8849 30.5457 66.7739 30.6053 66.682 30.6887C66.5901 30.7722 66.5201 30.8769 66.4781 30.9937L65.2594 34.4906C64.5 36.6844 63.1031 38.925 61.125 41.1281C60.9938 41.2687 60.8438 41.3062 60.7406 41.3156C60.6375 41.325 60.4781 41.3062 60.3375 41.175C60.2062 41.0625 60.1406 40.8937 60.15 40.725C60.4969 35.0812 58.8094 28.7156 55.1156 21.7875C52.0594 16.0312 47.8125 11.5406 42.5062 8.40937L38.6344 6.13124C38.1281 5.83124 37.4813 6.22499 37.5094 6.81562L37.7156 11.3156C37.8562 14.3906 37.5 17.1094 36.6562 19.3687C35.625 22.1344 34.1437 24.7031 32.25 27.0094C30.9321 28.6121 29.4384 30.0619 27.7969 31.3312C23.8435 34.3703 20.6289 38.2644 18.3937 42.7219C16.1641 47.2182 15.0027 52.1687 15 57.1875C15 61.6125 15.8719 65.8969 17.5969 69.9375C19.2625 73.8278 21.6662 77.3585 24.675 80.3344C27.7125 83.3344 31.2375 85.6969 35.1656 87.3375C39.2344 89.0437 43.5469 89.9062 48 89.9062C52.4531 89.9062 56.7656 89.0437 60.8344 87.3469C64.7528 85.7158 68.3161 83.3372 71.325 80.3437C74.3625 77.3437 76.7437 73.8375 78.4031 69.9469C80.1255 65.9173 81.0091 61.5791 81 57.1969C81 52.6219 80.0625 48.1781 78.1969 43.9875Z" fill="#F24E1E"/>
</svg>
