<svg width="81" height="81" viewBox="0 0 81 81" fill="none" xmlns="http://www.w3.org/2000/svg">
<path d="M5.0625 30.375H55.6875C64.0628 30.375 70.875 23.5628 70.875 15.1875C70.875 6.81223 64.0628 0 55.6875 0H50.625C47.8264 0 45.5625 2.26389 45.5625 5.0625C45.5625 7.86111 47.8264 10.125 50.625 10.125H55.6875C58.4814 10.125 60.75 12.3936 60.75 15.1875C60.75 17.9814 58.4814 20.25 55.6875 20.25H5.0625C2.26389 20.25 0 22.5123 0 25.3125C0 28.1127 2.26389 30.375 5.0625 30.375ZM25.3125 50.625H5.0625C2.26389 50.625 0 52.8889 0 55.6875C0 58.4861 2.26389 60.75 5.0625 60.75H25.3125C28.1064 60.75 30.375 63.0186 30.375 65.8125C30.375 68.6064 28.1064 70.875 25.3125 70.875H20.25C17.4514 70.875 15.1875 73.1389 15.1875 75.9375C15.1875 78.7361 17.4514 81 20.25 81H25.3125C33.6878 81 40.5 74.1878 40.5 65.8125C40.5 57.4372 33.6814 50.625 25.3125 50.625ZM65.8125 35.4375H5.0625C2.26389 35.4375 0 37.6998 0 40.5C0 43.3002 2.26389 45.5625 5.0625 45.5625H65.8125C68.6064 45.5625 70.875 47.8311 70.875 50.625C70.875 53.4189 68.6064 55.6875 65.8125 55.6875H60.75C57.9514 55.6875 55.6875 57.9514 55.6875 60.75C55.6875 63.5486 57.9514 65.8125 60.75 65.8125H65.8125C74.1878 65.8125 81 59.0003 81 50.625C81 42.2497 74.1814 35.4375 65.8125 35.4375Z" fill="#699BF7"/>
</svg>
