<svg width="82" height="82" viewBox="0 0 82 82" fill="none" xmlns="http://www.w3.org/2000/svg">
<path d="M41 7.68747C32.7308 7.68747 25.5148 13.4736 23.5827 21.3815C22.0014 21.9976 20.5572 22.9194 19.3326 24.0943C18.108 25.2692 17.1271 26.6741 16.4461 28.2285C7.48763 27.5674 0 34.7347 0 43.5625C0 52.0418 6.89569 58.9375 15.375 58.9375V53.8125C9.71956 53.8125 5.125 49.2179 5.125 43.5625C5.125 37.907 9.71956 33.3125 15.375 33.3125C16.0848 33.3125 16.8254 33.4022 17.6377 33.5815L20.1387 34.153L20.7024 31.6417C21.019 30.2424 21.7212 28.9597 22.7293 27.9389C23.7374 26.918 25.0113 26.1999 26.4066 25.8658L28.0978 25.4661L28.3489 23.7441C29.2586 17.507 34.7039 12.8125 41 12.8125C43.3718 12.8082 45.6979 13.4654 47.7168 14.7102C49.7357 15.955 51.3675 17.7382 52.4287 19.8593L53.4409 21.8607L55.5653 21.1201C56.7645 20.7101 57.8664 20.5 58.9375 20.5C64.5929 20.5 69.1875 25.0945 69.1875 30.75C69.1875 30.8525 69.167 30.9396 69.1465 31.0318C69.1286 31.2112 69.1081 31.3906 69.0953 31.5597L68.9364 33.4047L70.6379 34.1325C72.4897 34.9167 74.0691 36.2296 75.1785 37.9069C76.2878 39.5842 76.878 41.5515 76.875 43.5625C76.875 49.2179 72.2804 53.8125 66.625 53.8125H60.1086C61.453 55.3035 62.4901 57.0451 63.1605 58.9375H66.625C75.1043 58.9375 82 52.0495 82 43.5625C81.9997 40.8611 81.2881 38.2075 79.9368 35.8684C78.5855 33.5293 76.6422 31.5872 74.3023 30.2375C74.1642 26.2527 72.4857 22.4769 69.6199 19.7048C66.7541 16.9327 62.9246 15.3805 58.9375 15.375C57.9381 15.375 56.9464 15.4852 55.9342 15.6953C54.3023 13.2286 52.0835 11.2057 49.4769 9.8081C46.8704 8.41045 43.9576 7.68178 41 7.68747ZM39.7188 30.75C36.8052 30.75 34.1838 32.1593 32.5514 34.3323L36.6463 37.4074C37.0031 36.9296 37.4669 36.5422 38.0004 36.2761C38.534 36.0099 39.1225 35.8726 39.7188 35.875C41.8713 35.875 43.5625 37.5662 43.5625 39.7187C43.5625 41.8712 41.8713 43.5625 39.7188 43.5625H23.0625V48.6875H39.7188C44.6439 48.6875 48.6875 44.6439 48.6875 39.7187C48.6875 34.7936 44.6439 30.75 39.7188 30.75ZM20.5 53.8125V58.9375H28.1875C29.6379 58.9375 30.75 60.0496 30.75 61.5C30.75 62.9504 29.6379 64.0625 28.1875 64.0625C27.7382 64.0653 27.2962 63.9481 26.9074 63.7228C26.5186 63.4975 26.1971 63.1725 25.9761 62.7812L21.5429 65.3745C22.2249 66.5315 23.196 67.4914 24.3609 68.1599C25.5258 68.8283 26.8444 69.1825 28.1875 69.1875C32.4028 69.1875 35.875 65.7153 35.875 61.5C35.8641 60.6244 35.701 59.7573 35.3932 58.9375H48.6875C51.5498 58.9375 53.8125 61.2002 53.8125 64.0625C53.8125 66.9248 51.5498 69.1875 48.6875 69.1875C47.6262 69.1877 46.5911 68.8585 45.725 68.2453C44.8588 67.632 44.2044 66.765 43.8521 65.764L39.0192 67.4655C39.725 69.4663 41.0338 71.1992 42.7653 72.4254C44.4967 73.6516 46.5658 74.3109 48.6875 74.3125C54.325 74.3125 58.9375 69.7 58.9375 64.0625C58.9375 58.425 54.325 53.8125 48.6875 53.8125H20.5Z" fill="#699BF7"/>
</svg>
