<svg width="92" height="94" viewBox="0 0 92 94" fill="none" xmlns="http://www.w3.org/2000/svg">
<path d="M11.4693 45.4334C11.4693 39.0414 13.0333 33.1194 16.1307 27.6987C19.228 22.278 23.4293 17.9854 28.7347 14.8207C34.04 11.656 39.8053 10.0894 46.0307 10.0894C50.692 10.0894 55.1693 11.0294 59.432 12.878C63.6947 14.7267 67.344 17.2647 70.4413 20.398C73.5387 23.5314 75.992 27.2914 77.8013 31.678C79.6107 36.0647 80.5307 40.608 80.5307 45.4334C80.5307 50.196 79.6107 54.7707 77.8013 59.126C75.992 63.4814 73.508 67.2414 70.4413 70.3747C67.3747 73.508 63.6947 76.0147 59.432 77.8634C55.1693 79.712 50.7227 80.652 46.0307 80.652C41.3387 80.652 36.8307 79.712 32.568 77.8634C28.3053 76.0147 24.6253 73.4767 21.528 70.3434C18.4307 67.21 16.008 63.45 14.168 59.126C12.328 54.802 11.4693 50.2274 11.4693 45.4334ZM19.0747 45.4334C19.0747 52.8594 21.712 59.314 27.0173 64.7974C32.3227 70.218 38.64 72.9127 46.0307 72.9127C50.876 72.9127 55.384 71.6907 59.4933 69.2154C63.6027 66.74 66.9147 63.4187 69.3373 59.1887C71.76 54.9587 72.9867 50.384 72.9867 45.4334C72.9867 40.4827 71.76 35.8767 69.3373 31.6467C66.9147 27.4167 63.6333 24.064 59.4933 21.5887C55.3533 19.1134 50.876 17.8914 46.0307 17.8914C41.1853 17.8914 36.6773 19.1134 32.568 21.5887C28.4587 24.064 25.1467 27.4167 22.6933 31.6467C20.24 35.8767 19.0747 40.4827 19.0747 45.4334ZM34.0707 63.7634L45.5707 22.6854C45.6013 22.372 45.7547 22.2154 46.0307 22.2154C46.3067 22.2154 46.46 22.372 46.4907 22.6854L57.96 63.7634C58.0827 64.108 58.052 64.3587 57.8987 64.5467C57.7453 64.7347 57.5 64.7347 57.1627 64.5467L46.5213 60.4734C46.2147 60.348 45.908 60.348 45.632 60.4734L34.8987 64.5467C34.592 64.7347 34.3773 64.7347 34.2547 64.5467C34.132 64.3587 34.0093 64.0767 34.0707 63.7634Z" fill="#9747FF"/>
</svg>
