<svg id="visual" viewBox="0 0 1920 1200" width="1920" height="1200" xmlns="http://www.w3.org/2000/svg" xmlns:xlink="http://www.w3.org/1999/xlink" version="1.1"><rect x="0" y="0" width="1920" height="1200" fill="#20222f"></rect><defs><linearGradient id="grad1_0" x1="37.5%" y1="100%" x2="100%" y2="0%"><stop offset="17.999999999999996%" stop-color="#20d4cc" stop-opacity="1"></stop><stop offset="82%" stop-color="#20d4cc" stop-opacity="1"></stop></linearGradient></defs><defs><linearGradient id="grad1_1" x1="37.5%" y1="100%" x2="100%" y2="0%"><stop offset="17.999999999999996%" stop-color="#20d4cc" stop-opacity="1"></stop><stop offset="82%" stop-color="#00b3bf" stop-opacity="1"></stop></linearGradient></defs><defs><linearGradient id="grad1_2" x1="37.5%" y1="100%" x2="100%" y2="0%"><stop offset="17.999999999999996%" stop-color="#0593ab" stop-opacity="1"></stop><stop offset="82%" stop-color="#00b3bf" stop-opacity="1"></stop></linearGradient></defs><defs><linearGradient id="grad1_3" x1="37.5%" y1="100%" x2="100%" y2="0%"><stop offset="17.999999999999996%" stop-color="#0593ab" stop-opacity="1"></stop><stop offset="82%" stop-color="#247491" stop-opacity="1"></stop></linearGradient></defs><defs><linearGradient id="grad1_4" x1="37.5%" y1="100%" x2="100%" y2="0%"><stop offset="17.999999999999996%" stop-color="#2d5671" stop-opacity="1"></stop><stop offset="82%" stop-color="#247491" stop-opacity="1"></stop></linearGradient></defs><defs><linearGradient id="grad1_5" x1="37.5%" y1="100%" x2="100%" y2="0%"><stop offset="17.999999999999996%" stop-color="#2d5671" stop-opacity="1"></stop><stop offset="82%" stop-color="#2b3a50" stop-opacity="1"></stop></linearGradient></defs><defs><linearGradient id="grad1_6" x1="37.5%" y1="100%" x2="100%" y2="0%"><stop offset="17.999999999999996%" stop-color="#20222f" stop-opacity="1"></stop><stop offset="82%" stop-color="#2b3a50" stop-opacity="1"></stop></linearGradient></defs><defs><linearGradient id="grad2_0" x1="0%" y1="100%" x2="62.5%" y2="0%"><stop offset="17.999999999999996%" stop-color="#20d4cc" stop-opacity="1"></stop><stop offset="82%" stop-color="#20d4cc" stop-opacity="1"></stop></linearGradient></defs><defs><linearGradient id="grad2_1" x1="0%" y1="100%" x2="62.5%" y2="0%"><stop offset="17.999999999999996%" stop-color="#00b3bf" stop-opacity="1"></stop><stop offset="82%" stop-color="#20d4cc" stop-opacity="1"></stop></linearGradient></defs><defs><linearGradient id="grad2_2" x1="0%" y1="100%" x2="62.5%" y2="0%"><stop offset="17.999999999999996%" stop-color="#00b3bf" stop-opacity="1"></stop><stop offset="82%" stop-color="#0593ab" stop-opacity="1"></stop></linearGradient></defs><defs><linearGradient id="grad2_3" x1="0%" y1="100%" x2="62.5%" y2="0%"><stop offset="17.999999999999996%" stop-color="#247491" stop-opacity="1"></stop><stop offset="82%" stop-color="#0593ab" stop-opacity="1"></stop></linearGradient></defs><defs><linearGradient id="grad2_4" x1="0%" y1="100%" x2="62.5%" y2="0%"><stop offset="17.999999999999996%" stop-color="#247491" stop-opacity="1"></stop><stop offset="82%" stop-color="#2d5671" stop-opacity="1"></stop></linearGradient></defs><defs><linearGradient id="grad2_5" x1="0%" y1="100%" x2="62.5%" y2="0%"><stop offset="17.999999999999996%" stop-color="#2b3a50" stop-opacity="1"></stop><stop offset="82%" stop-color="#2d5671" stop-opacity="1"></stop></linearGradient></defs><defs><linearGradient id="grad2_6" x1="0%" y1="100%" x2="62.5%" y2="0%"><stop offset="17.999999999999996%" stop-color="#2b3a50" stop-opacity="1"></stop><stop offset="82%" stop-color="#20222f" stop-opacity="1"></stop></linearGradient></defs><g transform="translate(1920, 1200)"><path d="M-905.7 0C-904.2 -98.5 -902.7 -197.1 -861.3 -279.9C-820 -362.7 -738.8 -429.7 -659.3 -479C-579.9 -528.4 -502.2 -560 -434.4 -597.9C-366.6 -635.8 -308.7 -680 -237.9 -732.3C-167.2 -784.7 -83.6 -845.2 0 -905.7L0 0Z" fill="#262e3f"></path><path d="M-776.3 0C-775 -84.5 -773.7 -168.9 -738.3 -239.9C-702.9 -310.9 -633.3 -368.3 -565.2 -410.6C-497.1 -452.9 -430.4 -480 -372.3 -512.5C-314.2 -544.9 -264.6 -582.8 -204 -627.7C-143.3 -672.6 -71.7 -724.4 0 -776.3L0 0Z" fill="#2d4861"></path><path d="M-646.9 0C-645.8 -70.4 -644.8 -140.8 -615.2 -199.9C-585.7 -259 -527.7 -306.9 -471 -342.2C-414.2 -377.4 -358.7 -400 -310.3 -427C-261.8 -454.1 -220.5 -485.7 -170 -523.1C-119.4 -560.5 -59.7 -603.7 0 -646.9L0 0Z" fill="#2a6481"></path><path d="M-517.5 0C-516.7 -56.3 -515.8 -112.6 -492.2 -159.9C-468.6 -207.2 -422.2 -245.6 -376.8 -273.7C-331.4 -301.9 -287 -320 -248.2 -341.6C-209.5 -363.3 -176.4 -388.6 -136 -418.5C-95.5 -448.4 -47.8 -483 0 -517.5L0 0Z" fill="#19839f"></path><path d="M-388.1 0C-387.5 -42.2 -386.9 -84.5 -369.1 -119.9C-351.4 -155.4 -316.6 -184.2 -282.6 -205.3C-248.5 -226.4 -215.2 -240 -186.2 -256.2C-157.1 -272.5 -132.3 -291.4 -102 -313.8C-71.7 -336.3 -35.8 -362.2 0 -388.1L0 0Z" fill="#00a3b6"></path><path d="M-258.8 0C-258.3 -28.2 -257.9 -56.3 -246.1 -80C-234.3 -103.6 -211.1 -122.8 -188.4 -136.9C-165.7 -151 -143.5 -160 -124.1 -170.8C-104.7 -181.6 -88.2 -194.3 -68 -209.2C-47.8 -224.2 -23.9 -241.5 0 -258.8L0 0Z" fill="#00c4c7"></path><path d="M-129.4 0C-129.2 -14.1 -129 -28.2 -123 -40C-117.1 -51.8 -105.5 -61.4 -94.2 -68.4C-82.8 -75.5 -71.7 -80 -62.1 -85.4C-52.4 -90.8 -44.1 -97.1 -34 -104.6C-23.9 -112.1 -11.9 -120.7 0 -129.4L0 0Z" fill="#20d4cc"></path></g><g transform="translate(0, 0)"><path d="M905.7 0C870.7 87.1 835.7 174.2 809.3 263C783 351.8 765.2 442.2 722.5 524.9C679.7 607.6 611.9 682.5 532.3 732.7C452.8 782.9 361.4 808.4 270.7 833.1C180 857.8 90 881.7 0 905.7L0 0Z" fill="#262e3f"></path><path d="M776.3 0C746.3 74.7 716.3 149.3 693.7 225.4C671.1 301.5 655.9 379 619.2 449.9C582.6 520.8 524.5 585 456.3 628C388.1 671.1 309.8 692.9 232 714.1C154.3 735.3 77.1 755.8 0 776.3L0 0Z" fill="#2d4861"></path><path d="M646.9 0C621.9 62.2 596.9 124.4 578.1 187.8C559.3 251.3 546.6 315.9 516 374.9C485.5 434 437.1 487.5 380.2 523.4C323.4 559.2 258.1 577.4 193.4 595.1C128.6 612.7 64.3 629.8 0 646.9L0 0Z" fill="#2a6481"></path><path d="M517.5 0C497.5 49.8 477.6 99.5 462.5 150.3C447.4 201 437.3 252.7 412.8 299.9C388.4 347.2 349.7 390 304.2 418.7C258.7 447.4 206.5 462 154.7 476.1C102.9 490.2 51.4 503.9 0 517.5L0 0Z" fill="#19839f"></path><path d="M388.1 0C373.2 37.3 358.2 74.7 346.9 112.7C335.6 150.8 328 189.5 309.6 225C291.3 260.4 262.2 292.5 228.1 314C194 335.5 154.9 346.5 116 357.1C77.1 367.6 38.6 377.9 0 388.1L0 0Z" fill="#00a3b6"></path><path d="M258.8 0C248.8 24.9 238.8 49.8 231.2 75.1C223.7 100.5 218.6 126.3 206.4 150C194.2 173.6 174.8 195 152.1 209.3C129.4 223.7 103.3 231 77.3 238C51.4 245.1 25.7 251.9 0 258.8L0 0Z" fill="#00c4c7"></path><path d="M129.4 0C124.4 12.4 119.4 24.9 115.6 37.6C111.9 50.3 109.3 63.2 103.2 75C97.1 86.8 87.4 97.5 76 104.7C64.7 111.8 51.6 115.5 38.7 119C25.7 122.5 12.9 126 0 129.4L0 0Z" fill="#20d4cc"></path></g></svg>