<svg width="38" height="38" viewBox="0 0 38 38" fill="none" xmlns="http://www.w3.org/2000/svg">
<path d="M28.5 15.8334C28.5 15.4134 28.3332 15.0107 28.0363 14.7138C27.7393 14.4168 27.3366 14.25 26.9167 14.25H8.56585L12.2075 10.6242C12.5057 10.326 12.6732 9.92167 12.6732 9.50003C12.6732 9.07838 12.5057 8.67401 12.2075 8.37586C11.9094 8.07771 11.505 7.91022 11.0834 7.91022C10.6617 7.91022 10.2573 8.07771 9.95918 8.37586L3.62585 14.7092C3.40615 14.9319 3.25732 15.2146 3.19815 15.5217C3.13897 15.8289 3.1721 16.1467 3.29335 16.435C3.41213 16.7242 3.61385 16.9717 3.87307 17.1464C4.13229 17.3211 4.43743 17.4151 4.75002 17.4167H26.9167C27.3366 17.4167 27.7393 17.2499 28.0363 16.9529C28.3332 16.656 28.5 16.2533 28.5 15.8334ZM34.7067 21.565C34.5879 21.2759 34.3862 21.0284 34.127 20.8537C33.8677 20.679 33.5626 20.5849 33.25 20.5834H11.0834C10.6634 20.5834 10.2607 20.7502 9.96377 21.0471C9.66683 21.344 9.50002 21.7468 9.50002 22.1667C9.50002 22.5866 9.66683 22.9894 9.96377 23.2863C10.2607 23.5832 10.6634 23.75 11.0834 23.75H29.4342L25.7925 27.3759C25.6441 27.5231 25.5263 27.6982 25.4459 27.8911C25.3656 28.0841 25.3242 28.291 25.3242 28.5C25.3242 28.709 25.3656 28.916 25.4459 29.1089C25.5263 29.3019 25.6441 29.477 25.7925 29.6242C25.9397 29.7726 26.1148 29.8904 26.3078 29.9708C26.5007 30.0512 26.7077 30.0925 26.9167 30.0925C27.1257 30.0925 27.3327 30.0512 27.5256 29.9708C27.7185 29.8904 27.8937 29.7726 28.0408 29.6242L34.3742 23.2909C34.5939 23.0682 34.7427 22.7855 34.8019 22.4783C34.8611 22.1712 34.8279 21.8534 34.7067 21.565Z" fill="#F8F8F8"/>
</svg>
