<svg id="Capa_1" data-name="Capa 1" xmlns="http://www.w3.org/2000/svg" xmlns:xlink="http://www.w3.org/1999/xlink" viewBox="0 0 489.59 272.43"><defs><style>.cls-1,.cls-3{fill:#f7fcff;}.cls-1,.cls-4{fill-opacity:0.6;}.cls-1,.cls-12,.cls-13,.cls-2,.cls-3,.cls-4,.cls-8,.cls-9{fill-rule:evenodd;}.cls-2{fill:#a8abac;fill-opacity:0.06;}.cls-12,.cls-3,.cls-8{fill-opacity:0.2;}.cls-4{fill:#fff;}.cls-10,.cls-5,.cls-7{fill:none;}.cls-10,.cls-5{stroke-opacity:0.8;stroke-width:4px;}.cls-5{stroke:url(#Degradado_sin_nombre);}.cls-6{mask:url(#mask);}.cls-8{fill:url(#Degradado_sin_nombre_2);}.cls-13,.cls-9{fill-opacity:0.8;}.cls-9{fill:url(#Degradado_sin_nombre_3);}.cls-10{stroke:url(#Degradado_sin_nombre_4);}.cls-11{mask:url(#mask-3);}.cls-12{fill:url(#Degradado_sin_nombre_5);}.cls-13{fill:url(#Degradado_sin_nombre_6);}.cls-14{mask:url(#mask-4);}</style><linearGradient id="Degradado_sin_nombre" x1="327.91" y1="278.02" x2="256.9" y2="51.26" gradientTransform="matrix(1, 0, 0, -1, 0, 346)" gradientUnits="userSpaceOnUse"><stop offset="0" stop-color="#fff"/><stop offset="0.44" stop-color="#fff" stop-opacity="0"/></linearGradient><mask id="mask" x="89.24" y="20.1" width="400.35" height="252.33" maskUnits="userSpaceOnUse"><g transform="translate(0 -33)"><g id="mask0_80_306" data-name="mask0 80 306"><path class="cls-1" d="M96.35,179.26c0,68.62,53,124.45,118.89,126.13v0H390c50.5,0,91.45-42.37,91.45-94.63s-41-94.62-91.45-94.62a89.14,89.14,0,0,0-56.9,20.54C316.25,88,271.2,53.1,218.29,53.1,151,53.1,96.35,109.58,96.35,179.26Z"/></g></g></mask><linearGradient id="Degradado_sin_nombre_2" x1="172.3" y1="162.33" x2="333.37" y2="167.73" gradientTransform="matrix(1, 0, 0, -1, 0, 346)" gradientUnits="userSpaceOnUse"><stop offset="0.03" stop-color="#b1cae2"/><stop offset="1" stop-color="#fff" stop-opacity="0"/></linearGradient><linearGradient id="Degradado_sin_nombre_3" x1="338.67" y1="286.19" x2="290.03" y2="156.92" gradientTransform="matrix(1, 0, 0, -1, 0, 346)" gradientUnits="userSpaceOnUse"><stop offset="0" stop-color="#fff"/><stop offset="1" stop-color="#fff" stop-opacity="0"/></linearGradient><linearGradient id="Degradado_sin_nombre_4" x1="238.94" y1="298.11" x2="167.93" y2="71.35" xlink:href="#Degradado_sin_nombre"/><mask id="mask-3" x="0.27" y="0" width="400.35" height="252.33" maskUnits="userSpaceOnUse"><g transform="translate(0 -33)"><g id="mask2_80_306" data-name="mask2 80 306"><path class="cls-1" d="M7.39,159.16c0,68.63,53,124.46,118.88,126.13v0H301.05c50.51,0,91.45-42.36,91.45-94.62s-40.94-94.63-91.45-94.63a89.16,89.16,0,0,0-56.9,20.54C227.28,67.87,182.24,33,129.32,33,62,33,7.39,89.49,7.39,159.16Z"/></g></g></mask><linearGradient id="Degradado_sin_nombre_5" x1="83.33" y1="182.43" x2="244.4" y2="187.82" xlink:href="#Degradado_sin_nombre_2"/><linearGradient id="Degradado_sin_nombre_6" x1="249.7" y1="306.29" x2="201.06" y2="177.01" xlink:href="#Degradado_sin_nombre_3"/><mask id="mask-4" x="0" y="0" width="415.75" height="252.33" maskUnits="userSpaceOnUse"><g transform="translate(0 -33)"><g id="mask3_80_306" data-name="mask3 80 306"><path class="cls-1" d="M7.39,159.16c0,68.63,55,124.46,123.46,126.13v0H312.34c52.45,0,95-42.36,95-94.62s-42.52-94.63-95-94.63a94.74,94.74,0,0,0-59.08,20.54A126.65,126.65,0,0,0,134,33C64.08,33,7.39,89.49,7.39,159.16Z"/></g></g></mask></defs><path class="cls-2" d="M96.35,179.26c0,68.62,53,124.45,118.89,126.13v0H390c50.5,0,91.45-42.37,91.45-94.63s-41-94.62-91.45-94.62a89.14,89.14,0,0,0-56.9,20.54C316.25,88,271.2,53.1,218.29,53.1,151,53.1,96.35,109.58,96.35,179.26Z" transform="translate(0 -33)"/><path class="cls-3" d="M96.35,179.26c0,68.62,53,124.45,118.89,126.13v0H390c50.5,0,91.45-42.37,91.45-94.63s-41-94.62-91.45-94.62a89.14,89.14,0,0,0-56.9,20.54C316.25,88,271.2,53.1,218.29,53.1,151,53.1,96.35,109.58,96.35,179.26Z" transform="translate(0 -33)"/><path class="cls-4" d="M96.35,179.26c0,68.62,53,124.45,118.89,126.13v0H390c50.5,0,91.45-42.37,91.45-94.63s-41-94.62-91.45-94.62a89.14,89.14,0,0,0-56.9,20.54C316.25,88,271.2,53.1,218.29,53.1,151,53.1,96.35,109.58,96.35,179.26Z" transform="translate(0 -33)"/><path class="cls-5" d="M218.29,302.56H216.8l-1.49,0C151,300.89,99.23,246.42,99.23,179.26c0-68.19,53.4-123.3,119.06-123.3,51.6,0,95.61,34,112.11,81.69l1.35,3.91,3.2-2.63A86.25,86.25,0,0,1,390,119c48.82,0,88.57,41,88.57,91.76S438.84,302.56,390,302.56Z" transform="translate(0 -33)"/><g class="cls-6"><path class="cls-7" d="M93.3,53.1H489.59V305.43H93.3Z" transform="translate(0 -33)"/><path class="cls-7" d="M89.24,53.1H481.47V305.43H89.24Z" transform="translate(0 -33)"/></g><path class="cls-8" d="M96.35,179.26c0,68.62,53,124.45,118.89,126.13v0H390c50.5,0,91.45-42.37,91.45-94.63s-41-94.62-91.45-94.62a89.14,89.14,0,0,0-56.9,20.54C316.25,88,271.2,53.1,218.29,53.1,151,53.1,96.35,109.58,96.35,179.26Z" transform="translate(0 -33)"/><path class="cls-9" d="M96.35,179.26c0,68.62,53,124.45,118.89,126.13v0H390c50.5,0,91.45-42.37,91.45-94.63s-41-94.62-91.45-94.62a89.14,89.14,0,0,0-56.9,20.54C316.25,88,271.2,53.1,218.29,53.1,151,53.1,96.35,109.58,96.35,179.26Z" transform="translate(0 -33)"/><g class="cls-6"><path class="cls-7" d="M93.3,53.1H489.59V305.43H93.3Z" transform="translate(0 -33)"/><path class="cls-7" d="M89.24,53.1H481.47V305.43H89.24Z" transform="translate(0 -33)"/></g><path class="cls-2" d="M7.39,159.16c0,68.63,53,124.46,118.88,126.13v0H301.05c50.51,0,91.45-42.36,91.45-94.62s-40.94-94.63-91.45-94.63a89.16,89.16,0,0,0-56.9,20.54C227.28,67.87,182.24,33,129.32,33,62,33,7.39,89.49,7.39,159.16Z" transform="translate(0 -33)"/><path class="cls-3" d="M7.39,159.16c0,68.63,53,124.46,118.88,126.13v0H301.05c50.51,0,91.45-42.36,91.45-94.62s-40.94-94.63-91.45-94.63a89.16,89.16,0,0,0-56.9,20.54C227.28,67.87,182.24,33,129.32,33,62,33,7.39,89.49,7.39,159.16Z" transform="translate(0 -33)"/><path class="cls-4" d="M7.39,159.16c0,68.63,53,124.46,118.88,126.13v0H301.05c50.51,0,91.45-42.36,91.45-94.62s-40.94-94.63-91.45-94.63a89.16,89.16,0,0,0-56.9,20.54C227.28,67.87,182.24,33,129.32,33,62,33,7.39,89.49,7.39,159.16Z" transform="translate(0 -33)"/><path class="cls-10" d="M129.32,282.46h-1.49l-1.48,0C62.06,280.79,10.26,226.32,10.26,159.16,10.26,91,63.66,35.87,129.32,35.87c51.6,0,95.61,34,112.12,81.69l1.35,3.9,3.19-2.63A86.32,86.32,0,0,1,301.05,99c48.82,0,88.58,41,88.58,91.76s-39.76,91.75-88.58,91.75Z" transform="translate(0 -33)"/><g class="cls-11"><path class="cls-7" d="M4.34,33H400.63V285.33H4.34Z" transform="translate(0 -33)"/><path class="cls-7" d="M.27,33H392.5V285.33H.27Z" transform="translate(0 -33)"/></g><path class="cls-12" d="M7.39,159.16c0,68.63,53,124.46,118.88,126.13v0H301.05c50.51,0,91.45-42.36,91.45-94.62s-40.94-94.63-91.45-94.63a89.16,89.16,0,0,0-56.9,20.54C227.28,67.87,182.24,33,129.32,33,62,33,7.39,89.49,7.39,159.16Z" transform="translate(0 -33)"/><path class="cls-13" d="M7.39,159.16c0,68.63,53,124.46,118.88,126.13v0H301.05c50.51,0,91.45-42.36,91.45-94.62s-40.94-94.63-91.45-94.63a89.16,89.16,0,0,0-56.9,20.54C227.28,67.87,182.24,33,129.32,33,62,33,7.39,89.49,7.39,159.16Z" transform="translate(0 -33)"/><g class="cls-14"><path class="cls-7" d="M4.22,33H415.75V285.33H4.22Z" transform="translate(0 -33)"/><path class="cls-7" d="M0,33H407.31V285.33H0Z" transform="translate(0 -33)"/></g></svg>