<?xml version="1.0" encoding="utf-8"?>
<!-- Generator: Adobe Illustrator 25.2.1, SVG Export Plug-In . SVG Version: 6.00 Build 0)  -->
<svg version="1.1" id="Capa_1" xmlns="http://www.w3.org/2000/svg" xmlns:xlink="http://www.w3.org/1999/xlink" x="0px" y="0px"
	 viewBox="0 0 452.2 322.4" style="enable-background:new 0 0 452.2 322.4;" xml:space="preserve">
<style type="text/css">
	.st0{fill:#FFCE31;}
	.st1{fill-rule:evenodd;clip-rule:evenodd;fill:url(#SVGID_1_);}
	.st2{fill-rule:evenodd;clip-rule:evenodd;fill:url(#SVGID_2_);}
	.st3{fill-rule:evenodd;clip-rule:evenodd;fill:url(#SVGID_3_);}
	.st4{fill-rule:evenodd;clip-rule:evenodd;fill:#FFC979;}
	.st5{fill-rule:evenodd;clip-rule:evenodd;fill:#FFFFFF;fill-opacity:0.6;}
	.st6{fill:none;stroke:url(#SVGID_4_);stroke-width:4;stroke-opacity:0.8;}
	.st7{fill:none;}
	.st8{fill-rule:evenodd;clip-rule:evenodd;fill:url(#SVGID_5_);fill-opacity:0.2;}
	.st9{fill-rule:evenodd;clip-rule:evenodd;fill:url(#SVGID_6_);fill-opacity:0.8;}
</style>
<path class="st0" d="M325.9,2c13.3,20.2,20.5,43.9,20.5,68.1c0.4,67.7-54.6,122.5-122.4,122.5c-22.2-0.1-43.9-6.1-63-17.4
	c21.4,43.1,65.4,70.2,113.5,70.2c70.2,0,127.2-56.8,127.2-126.9C401.7,66.5,370.4,21.9,325.9,2z"/>
<radialGradient id="SVGID_1_" cx="-1462.4193" cy="-8.1274" r="1.4" gradientTransform="matrix(-197.78 -119.84 82.7 -136.49 -288338.4375 -176167.4219)" gradientUnits="userSpaceOnUse">
	<stop  offset="0" style="stop-color:#FFFFFF"/>
	<stop  offset="1" style="stop-color:#FFFFFF;stop-opacity:0"/>
</radialGradient>
<path class="st1" d="M8,198.3c0,65.9,59.8,119.4,134.3,121.1l0,0h197.4c57,0,103.3-40.7,103.3-90.8s-46.2-90.8-103.3-90.8
	c-22.9-0.2-45.4,6.7-64.3,19.7c-19.1-46.8-69.9-80.2-129.7-80.2C69.7,77.2,8,131.4,8,198.3z"/>
<radialGradient id="SVGID_2_" cx="-1450.6603" cy="-16.2214" r="1.4" gradientTransform="matrix(186 89.02 -50.37 105.25 269230.9062 131040.1094)" gradientUnits="userSpaceOnUse">
	<stop  offset="0" style="stop-color:#0938DF"/>
	<stop  offset="1" style="stop-color:#0938DF;stop-opacity:0"/>
</radialGradient>
<path class="st2" d="M8,198.3c0,65.9,59.8,119.4,134.3,121.1l0,0h197.4c57,0,103.3-40.7,103.3-90.8s-46.2-90.8-103.3-90.8
	c-22.9-0.2-45.4,6.7-64.3,19.7c-19.1-46.8-69.9-80.2-129.7-80.2C69.7,77.2,8,131.4,8,198.3z"/>
<radialGradient id="SVGID_3_" cx="-1463.0588" cy="-18.3627" r="1.4" gradientTransform="matrix(-169.88 91.48 -57.08 -106 -249367.75 132094.3281)" gradientUnits="userSpaceOnUse">
	<stop  offset="0" style="stop-color:#151515"/>
	<stop  offset="1" style="stop-color:#151515;stop-opacity:0"/>
</radialGradient>
<path class="st3" d="M8,198.3c0,65.9,59.8,119.4,134.3,121.1l0,0h197.4c57,0,103.3-40.7,103.3-90.8s-46.2-90.8-103.3-90.8
	c-22.9-0.2-45.4,6.7-64.3,19.7c-19.1-46.8-69.9-80.2-129.7-80.2C69.7,77.2,8,131.4,8,198.3z"/>
<path class="st4" d="M8,198.3c0,65.9,59.8,119.4,134.3,121.1l0,0h197.4c57,0,103.3-40.7,103.3-90.8s-46.2-90.8-103.3-90.8
	c-22.9-0.2-45.4,6.7-64.3,19.7c-19.1-46.8-69.9-80.2-129.7-80.2C69.7,77.2,8,131.4,8,198.3z"/>
<path class="st5" d="M8,198.3c0,65.9,59.8,119.4,134.3,121.1l0,0h197.4c57,0,103.3-40.7,103.3-90.8s-46.2-90.8-103.3-90.8
	c-22.9-0.2-45.4,6.7-64.3,19.7c-19.1-46.8-69.9-80.2-129.7-80.2C69.7,77.2,8,131.4,8,198.3z"/>
<linearGradient id="SVGID_4_" gradientUnits="userSpaceOnUse" x1="258.6274" y1="146.3993" x2="199.3274" y2="369.6693" gradientTransform="matrix(1 0 0 1 -0.38 -58)">
	<stop  offset="0" style="stop-color:#FFFFFF"/>
	<stop  offset="0.44" style="stop-color:#FFFFFF;stop-opacity:0"/>
</linearGradient>
<path class="st6" d="M145.8,316.6h-1.7h-1.7C69.1,315,10.8,262.3,10.8,198.3c0-65,60-118.3,134.9-118.3
	c58.8,0,108.5,32.9,127.1,78.5l1.3,3.2l2.9-2c18.4-12.7,40.3-19.4,62.6-19.2c55.8,0,100.5,39.7,100.5,88s-44.6,88-100.5,88
	L145.8,316.6z"/>
<g>
	<path class="st7" d="M4.6,77.2h447.5v242.2H4.6V77.2z"/>
	<path class="st7" d="M0,77.2h443v242.2H0V77.2z"/>
</g>
<linearGradient id="SVGID_5_" gradientUnits="userSpaceOnUse" x1="94.2495" y1="262.137" x2="276.0895" y2="254.957" gradientTransform="matrix(1 0 0 1 -0.38 -58)">
	<stop  offset="3.000000e-02" style="stop-color:#B1CAE2"/>
	<stop  offset="1" style="stop-color:#FFFFFF;stop-opacity:0"/>
</linearGradient>
<path class="st8" d="M8,198.3c0,65.9,59.8,119.4,134.3,121.1l0,0h197.4c57,0,103.3-40.7,103.3-90.8s-46.2-90.8-103.3-90.8
	c-22.9-0.2-45.4,6.7-64.3,19.7c-19.1-46.8-69.9-80.2-129.7-80.2C69.7,77.2,8,131.4,8,198.3z"/>
<linearGradient id="SVGID_6_" gradientUnits="userSpaceOnUse" x1="268.0711" y1="137.1172" x2="227.0612" y2="265.6372" gradientTransform="matrix(1 0 0 1 -0.38 -58)">
	<stop  offset="0" style="stop-color:#FFFFFF"/>
	<stop  offset="1" style="stop-color:#FFFFFF;stop-opacity:0"/>
</linearGradient>
<path class="st9" d="M8,198.3c0,65.9,59.8,119.4,134.3,121.1l0,0h197.4c57,0,103.3-40.7,103.3-90.8s-46.2-90.8-103.3-90.8
	c-22.9-0.2-45.4,6.7-64.3,19.7c-19.1-46.8-69.9-80.2-129.7-80.2C69.7,77.2,8,131.4,8,198.3z"/>
<g>
	<path class="st7" d="M4.6,77.2h447.5v242.2H4.6V77.2z"/>
	<path class="st7" d="M0,77.2h443v242.2H0V77.2z"/>
</g>
<g>
	<path class="st7" d="M4.6,77.2h447.5v242.2H4.6V77.2z"/>
	<path class="st7" d="M0,77.2h443v242.2H0V77.2z"/>
</g>
</svg>
