<?xml version="1.0" encoding="utf-8"?>
<!-- Generator: Adobe Illustrator 25.2.1, SVG Export Plug-In . SVG Version: 6.00 Build 0)  -->
<svg version="1.1" id="Capa_1" xmlns="http://www.w3.org/2000/svg" xmlns:xlink="http://www.w3.org/1999/xlink" x="0px" y="0px"
	 viewBox="0 0 452 423" style="enable-background:new 0 0 452 423;" xml:space="preserve">
<style type="text/css">
	.st0{fill-rule:evenodd;clip-rule:evenodd;fill:#A8ABAC;fill-opacity:6.000000e-02;}
	.st1{fill:#A8ABAC;fill-opacity:6.000000e-02;}
	.st2{fill-rule:evenodd;clip-rule:evenodd;fill:#F7FCFF;fill-opacity:0.2;}
	.st3{fill:url(#SVGID_1_);}
	.st4{fill:url(#SVGID_2_);}
	.st5{fill:url(#SVGID_3_);}
	.st6{fill:url(#SVGID_4_);}
	.st7{fill:url(#SVGID_5_);}
	.st8{fill:url(#SVGID_6_);}
	.st9{fill:url(#SVGID_7_);}
	.st10{fill-rule:evenodd;clip-rule:evenodd;fill:#FFFFFF;fill-opacity:0.6;}
	.st11{fill:none;stroke:url(#SVGID_8_);stroke-width:4;stroke-opacity:0.8;}
	.st12{fill-rule:evenodd;clip-rule:evenodd;fill:#F7FCFF;fill-opacity:0.6;filter:url(#Adobe_OpacityMaskFilter);}
	.st13{mask:url(#mask0_80_657_1_);}
	.st14{fill:none;}
	.st15{fill-rule:evenodd;clip-rule:evenodd;fill:url(#SVGID_9_);fill-opacity:0.2;}
	.st16{fill-rule:evenodd;clip-rule:evenodd;fill:url(#SVGID_10_);fill-opacity:0.8;}
	.st17{fill-rule:evenodd;clip-rule:evenodd;fill:#F7FCFF;fill-opacity:0.6;filter:url(#Adobe_OpacityMaskFilter_1_);}
	.st18{mask:url(#mask1_80_657_1_);}
</style>
<g>
	<path class="st0" d="M10.7,152.6c0,74.3,59.3,134.7,133.2,136.6v0h3.4h192.4c56.6,0,102.4-45.9,102.4-102.5
		c0-56.6-45.9-102.4-102.4-102.4c-24.1,0-46.2,8.3-63.7,22.2C257,53.8,206.5,16,147.3,16C71.8,16,10.7,77.2,10.7,152.6z"/>
	<path class="st1" d="M135.9,232.9c0-7.2,5.9-13.1,13.1-13.1c7.2,0,13.1,5.9,13.1,13.1v97.9c0,7.2-5.9,13.1-13.1,13.1
		c-7.2,0-13.1-5.9-13.1-13.1V232.9z"/>
	<path class="st1" d="M188.2,251.1c0-7.2,5.9-13.1,13.1-13.1c7.2,0,13.1,5.9,13.1,13.1v118.4c0,7.2-5.9,13.1-13.1,13.1
		c-7.2,0-13.1-5.9-13.1-13.1V251.1z"/>
	<path class="st1" d="M240.6,222.6c0-7.2,5.9-13.1,13.1-13.1c7.2,0,13.1,5.9,13.1,13.1v86.5c0,7.2-5.9,13.1-13.1,13.1
		c-7.2,0-13.1-5.9-13.1-13.1V222.6z"/>
	<path class="st1" d="M293,222.6c0-7.2,5.9-13.1,13.1-13.1c7.2,0,13.1,5.9,13.1,13.1v108.1c0,7.2-5.9,13.1-13.1,13.1
		c-7.2,0-13.1-5.9-13.1-13.1V222.6z"/>
	<path class="st1" d="M293,368.3c0-7.2,5.9-13.1,13.1-13.1c7.2,0,13.1,5.9,13.1,13.1v29.6c0,7.2-5.9,13.1-13.1,13.1
		c-7.2,0-13.1-5.9-13.1-13.1V368.3z"/>
	<path class="st1" d="M240.6,350.1c0-7.2,5.9-13.1,13.1-13.1c7.2,0,13.1,5.9,13.1,13.1v36.4c0,7.2-5.9,13.1-13.1,13.1
		c-7.2,0-13.1-5.9-13.1-13.1V350.1z"/>
	<path class="st1" d="M135.9,375.1c0-7.2,5.9-13.1,13.1-13.1c7.2,0,13.1,5.9,13.1,13.1v11.4c0,7.2-5.9,13.1-13.1,13.1
		c-7.2,0-13.1-5.9-13.1-13.1V375.1z"/>
</g>
<path class="st2" d="M10.7,152.6c0,74.3,59.3,134.7,133.2,136.6v0h3.4h192.4c56.6,0,102.4-45.9,102.4-102.5
	c0-56.6-45.9-102.4-102.4-102.4c-24.1,0-46.2,8.3-63.7,22.2C257,53.8,206.5,16,147.3,16C71.8,16,10.7,77.2,10.7,152.6z"/>
<linearGradient id="SVGID_1_" gradientUnits="userSpaceOnUse" x1="149.0674" y1="214.5911" x2="148.834" y2="42.396" gradientTransform="matrix(1 0 0 -1 0 424)">
	<stop  offset="0.3177" style="stop-color:#3675D7"/>
	<stop  offset="0.724" style="stop-color:#25CDF4"/>
	<stop  offset="0.8854" style="stop-color:#7CDEE9"/>
	<stop  offset="1" style="stop-color:#67EBF7"/>
</linearGradient>
<path class="st3" d="M135.9,232.9c0-7.2,5.9-13.1,13.1-13.1c7.2,0,13.1,5.9,13.1,13.1v97.9c0,7.2-5.9,13.1-13.1,13.1
	c-7.2,0-13.1-5.9-13.1-13.1V232.9z"/>
<linearGradient id="SVGID_2_" gradientUnits="userSpaceOnUse" x1="201.4687" y1="214.5201" x2="201.2353" y2="42.325" gradientTransform="matrix(1 0 0 -1 0 424)">
	<stop  offset="0.3177" style="stop-color:#3675D7"/>
	<stop  offset="0.724" style="stop-color:#25CDF4"/>
	<stop  offset="0.8854" style="stop-color:#7CDEE9"/>
	<stop  offset="1" style="stop-color:#67EBF7"/>
</linearGradient>
<path class="st4" d="M188.2,251.1c0-7.2,5.9-13.1,13.1-13.1c7.2,0,13.1,5.9,13.1,13.1v118.4c0,7.2-5.9,13.1-13.1,13.1
	c-7.2,0-13.1-5.9-13.1-13.1V251.1z"/>
<linearGradient id="SVGID_3_" gradientUnits="userSpaceOnUse" x1="253.7721" y1="214.4847" x2="253.5387" y2="42.2896" gradientTransform="matrix(1 0 0 -1 0 424)">
	<stop  offset="0.3177" style="stop-color:#3675D7"/>
	<stop  offset="0.724" style="stop-color:#25CDF4"/>
	<stop  offset="0.8854" style="stop-color:#7CDEE9"/>
	<stop  offset="1" style="stop-color:#67EBF7"/>
</linearGradient>
<path class="st5" d="M240.6,222.6c0-7.2,5.9-13.1,13.1-13.1c7.2,0,13.1,5.9,13.1,13.1v86.5c0,7.2-5.9,13.1-13.1,13.1
	c-7.2,0-13.1-5.9-13.1-13.1V222.6z"/>
<linearGradient id="SVGID_4_" gradientUnits="userSpaceOnUse" x1="306.1488" y1="214.4847" x2="305.9154" y2="42.2896" gradientTransform="matrix(1 0 0 -1 0 424)">
	<stop  offset="0.3177" style="stop-color:#3675D7"/>
	<stop  offset="0.724" style="stop-color:#25CDF4"/>
	<stop  offset="0.8854" style="stop-color:#7CDEE9"/>
	<stop  offset="1" style="stop-color:#67EBF7"/>
</linearGradient>
<path class="st6" d="M293,222.6c0-7.2,5.9-13.1,13.1-13.1c7.2,0,13.1,5.9,13.1,13.1v108.1c0,7.2-5.9,13.1-13.1,13.1
	c-7.2,0-13.1-5.9-13.1-13.1V222.6z"/>
<linearGradient id="SVGID_5_" gradientUnits="userSpaceOnUse" x1="306.293" y1="214.378" x2="306.0596" y2="42.1829" gradientTransform="matrix(1 0 0 -1 0 424)">
	<stop  offset="0.3177" style="stop-color:#3675D7"/>
	<stop  offset="0.724" style="stop-color:#25CDF4"/>
	<stop  offset="0.8854" style="stop-color:#7CDEE9"/>
	<stop  offset="1" style="stop-color:#67EBF7"/>
</linearGradient>
<path class="st7" d="M293,368.3c0-7.2,5.9-13.1,13.1-13.1c7.2,0,13.1,5.9,13.1,13.1v29.6c0,7.2-5.9,13.1-13.1,13.1
	c-7.2,0-13.1-5.9-13.1-13.1V368.3z"/>
<linearGradient id="SVGID_6_" gradientUnits="userSpaceOnUse" x1="253.9109" y1="214.449" x2="253.6775" y2="42.2539" gradientTransform="matrix(1 0 0 -1 0 424)">
	<stop  offset="0.3177" style="stop-color:#3675D7"/>
	<stop  offset="0.724" style="stop-color:#25CDF4"/>
	<stop  offset="0.8854" style="stop-color:#7CDEE9"/>
	<stop  offset="1" style="stop-color:#67EBF7"/>
</linearGradient>
<path class="st8" d="M240.6,350.1c0-7.2,5.9-13.1,13.1-13.1c7.2,0,13.1,5.9,13.1,13.1v36.4c0,7.2-5.9,13.1-13.1,13.1
	c-7.2,0-13.1-5.9-13.1-13.1V350.1z"/>
<linearGradient id="SVGID_7_" gradientUnits="userSpaceOnUse" x1="149.2016" y1="214.5909" x2="148.9682" y2="42.3958" gradientTransform="matrix(1 0 0 -1 0 424)">
	<stop  offset="0.3177" style="stop-color:#3675D7"/>
	<stop  offset="0.724" style="stop-color:#25CDF4"/>
	<stop  offset="0.8854" style="stop-color:#7CDEE9"/>
	<stop  offset="1" style="stop-color:#67EBF7"/>
</linearGradient>
<path class="st9" d="M135.9,375.1c0-7.2,5.9-13.1,13.1-13.1c7.2,0,13.1,5.9,13.1,13.1v11.4c0,7.2-5.9,13.1-13.1,13.1
	c-7.2,0-13.1-5.9-13.1-13.1V375.1z"/>
<g>
	<path class="st10" d="M10.7,152.6c0,74.3,59.3,134.7,133.2,136.6v0h3.4h192.4c56.6,0,102.4-45.9,102.4-102.5
		c0-56.6-45.9-102.4-102.4-102.4c-24.1,0-46.2,8.3-63.7,22.2C257,53.8,206.5,16,147.3,16C71.8,16,10.7,77.2,10.7,152.6z"/>
	
		<linearGradient id="SVGID_8_" gradientUnits="userSpaceOnUse" x1="226.3755" y1="407.045" x2="226.3755" y2="135.756" gradientTransform="matrix(1 0 0 -1 0 424)">
		<stop  offset="0.7383" style="stop-color:#FFFFFF;stop-opacity:0"/>
		<stop  offset="1" style="stop-color:#FFFFFF"/>
	</linearGradient>
	<path class="st11" d="M147.3,286.2h-1.7l-1.7,0c-72.3-1.8-130.3-60.9-130.3-133.6C13.6,78.8,73.5,19,147.3,19
		c58,0,107.4,36.9,125.9,88.6l1.4,3.9l3.2-2.6c17-13.5,38.5-21.6,61.9-21.6c54.9,0,99.5,44.5,99.5,99.5s-44.5,99.5-99.5,99.5H147.3z
		"/>
</g>
<defs>
	<filter id="Adobe_OpacityMaskFilter" filterUnits="userSpaceOnUse" x="2.7" y="16" width="448.5" height="273.2">
		<feColorMatrix  type="matrix" values="1 0 0 0 0  0 1 0 0 0  0 0 1 0 0  0 0 0 1 0"/>
	</filter>
</defs>
<mask maskUnits="userSpaceOnUse" x="2.7" y="16" width="448.5" height="273.2" id="mask0_80_657_1_">
	<path class="st12" d="M10.7,152.6c0,74.3,59.3,134.7,133.2,136.6v0h3.4h192.4c56.6,0,102.4-45.9,102.4-102.5
		c0-56.6-45.9-102.4-102.4-102.4c-24.1,0-46.2,8.3-63.7,22.2C257,53.8,206.5,16,147.3,16C71.8,16,10.7,77.2,10.7,152.6z"/>
</mask>
<g class="st13">
	<path class="st14" d="M7.2,16h443.9v273.2H7.2V16z"/>
	<path class="st14" d="M2.7,16h439.4v273.2H2.7V16z"/>
</g>
<g>
	
		<linearGradient id="SVGID_9_" gradientUnits="userSpaceOnUse" x1="95.7531" y1="266.2864" x2="276.1778" y2="272.5465" gradientTransform="matrix(1 0 0 -1 0 424)">
		<stop  offset="2.541740e-02" style="stop-color:#B1CAE2"/>
		<stop  offset="1" style="stop-color:#FFFFFF;stop-opacity:0"/>
	</linearGradient>
	<path class="st15" d="M10.7,152.6c0,74.3,59.3,134.7,133.2,136.6v0h3.4h192.4c56.6,0,102.4-45.9,102.4-102.5
		c0-56.6-45.9-102.4-102.4-102.4c-24.1,0-46.2,8.3-63.7,22.2C257,53.8,206.5,16,147.3,16C71.8,16,10.7,77.2,10.7,152.6z"/>
</g>
<g>
	
		<linearGradient id="SVGID_10_" gradientUnits="userSpaceOnUse" x1="327.1313" y1="385.7791" x2="241.1875" y2="278.7763" gradientTransform="matrix(1 0 0 -1 0 424)">
		<stop  offset="0" style="stop-color:#FFFFFF"/>
		<stop  offset="1" style="stop-color:#FFFFFF;stop-opacity:0"/>
	</linearGradient>
	<path class="st16" d="M10.7,152.6c0,74.3,59.3,134.7,133.2,136.6v0h3.4h192.4c56.6,0,102.4-45.9,102.4-102.5
		c0-56.6-45.9-102.4-102.4-102.4c-24.1,0-46.2,8.3-63.7,22.2C257,53.8,206.5,16,147.3,16C71.8,16,10.7,77.2,10.7,152.6z"/>
</g>
<defs>
	<filter id="Adobe_OpacityMaskFilter_1_" filterUnits="userSpaceOnUse" x="2.7" y="16" width="448.5" height="273.2">
		<feColorMatrix  type="matrix" values="1 0 0 0 0  0 1 0 0 0  0 0 1 0 0  0 0 0 1 0"/>
	</filter>
</defs>
<mask maskUnits="userSpaceOnUse" x="2.7" y="16" width="448.5" height="273.2" id="mask1_80_657_1_">
	<path class="st17" d="M10.7,152.6c0,74.3,59.3,134.7,133.2,136.6v0h3.4h192.4c56.6,0,102.4-45.9,102.4-102.5
		c0-56.6-45.9-102.4-102.4-102.4c-24.1,0-46.2,8.3-63.7,22.2C257,53.8,206.5,16,147.3,16C71.8,16,10.7,77.2,10.7,152.6z"/>
</mask>
<g class="st18">
	<path class="st14" d="M7.2,16h443.9v273.2H7.2V16z"/>
	<path class="st14" d="M2.7,16h439.4v273.2H2.7V16z"/>
</g>
</svg>
