<svg id="Capa_1" data-name="Capa 1" xmlns="http://www.w3.org/2000/svg" xmlns:xlink="http://www.w3.org/1999/xlink" viewBox="0 0 475.32 415"><defs><style>.cls-1,.cls-4{fill:#f7fcff;}.cls-1,.cls-9{fill-opacity:0.6;}.cls-1,.cls-13,.cls-14,.cls-2,.cls-4,.cls-9{fill-rule:evenodd;}.cls-2,.cls-3{fill:#a8abac;fill-opacity:0.06;}.cls-13,.cls-4{fill-opacity:0.2;}.cls-5{fill:url(#Degradado_sin_nombre);}.cls-6{fill:url(#Degradado_sin_nombre_2);}.cls-7{fill:url(#Degradado_sin_nombre_3);}.cls-8{fill:url(#Degradado_sin_nombre_4);}.cls-9{fill:#fff;}.cls-10,.cls-12{fill:none;}.cls-10{stroke-opacity:0.8;stroke-width:4px;stroke:url(#Degradado_sin_nombre_5);}.cls-11{mask:url(#mask);}.cls-13{fill:url(#Degradado_sin_nombre_6);}.cls-14{fill-opacity:0.8;fill:url(#Degradado_sin_nombre_7);}</style><linearGradient id="Degradado_sin_nombre" x1="238.85" y1="207.95" x2="238.68" y2="66.64" gradientTransform="matrix(1, 0, 0, -1, 0, 444)" gradientUnits="userSpaceOnUse"><stop offset="0.32" stop-color="#3675d7"/><stop offset="0.72" stop-color="#25cdf4"/><stop offset="0.89" stop-color="#7cdee9"/><stop offset="1" stop-color="#67ebf7"/></linearGradient><linearGradient id="Degradado_sin_nombre_2" x1="239.31" y1="207.95" x2="239.13" y2="66.64" xlink:href="#Degradado_sin_nombre"/><linearGradient id="Degradado_sin_nombre_3" x1="237.15" y1="207.96" x2="236.98" y2="66.65" xlink:href="#Degradado_sin_nombre"/><linearGradient id="Degradado_sin_nombre_4" x1="238.96" y1="207.96" x2="238.79" y2="66.64" xlink:href="#Degradado_sin_nombre"/><linearGradient id="Degradado_sin_nombre_5" x1="238.48" y1="414.12" x2="238.48" y2="126.34" gradientTransform="matrix(1, 0, 0, -1, 0, 444)" gradientUnits="userSpaceOnUse"><stop offset="0.74" stop-color="#fff" stop-opacity="0"/><stop offset="1" stop-color="#fff"/></linearGradient><mask id="mask" x="0" y="0" width="475.32" height="289.54" maskUnits="userSpaceOnUse"><g transform="translate(-1.43 -29)"><g id="mask0_80_944" data-name="mask0 80 944"><path class="cls-1" d="M9.87,173.77A144.77,144.77,0,0,0,151,318.49v.05h207.5A108.58,108.58,0,1,0,291,125,144.79,144.79,0,0,0,9.87,173.77Z"/></g></g></mask><linearGradient id="Degradado_sin_nombre_6" x1="100.05" y1="264.81" x2="291.26" y2="271.45" gradientTransform="matrix(1, 0, 0, -1, 0, 444)" gradientUnits="userSpaceOnUse"><stop offset="0.03" stop-color="#b1cae2"/><stop offset="1" stop-color="#fff" stop-opacity="0"/></linearGradient><linearGradient id="Degradado_sin_nombre_7" x1="345.26" y1="391.45" x2="254.18" y2="278.05" gradientTransform="matrix(1, 0, 0, -1, 0, 444)" gradientUnits="userSpaceOnUse"><stop offset="0" stop-color="#fff"/><stop offset="1" stop-color="#fff" stop-opacity="0"/></linearGradient></defs><path class="cls-2" d="M9.87,173.77A144.77,144.77,0,0,0,151,318.49v.05h207.5A108.58,108.58,0,1,0,291,125,144.79,144.79,0,0,0,9.87,173.77Z" transform="translate(-1.43 -29)"/><path class="cls-3" d="M223.4,237.71a14.48,14.48,0,1,1,29,0V429.52a14.48,14.48,0,0,1-29,0Z" transform="translate(-1.43 -29)"/><path class="cls-3" d="M334.39,319.14a14.48,14.48,0,1,1,0,28.95H142.58a14.48,14.48,0,1,1,0-28.95Z" transform="translate(-1.43 -29)"/><path class="cls-3" d="M297.91,373.77a14.48,14.48,0,0,1-20.48,20.47L173.32,290.13a14.47,14.47,0,1,1,20.47-20.47Z" transform="translate(-1.43 -29)"/><path class="cls-3" d="M196.21,394.24a14.48,14.48,0,0,1-20.48-20.47L279.85,269.66a14.47,14.47,0,1,1,20.47,20.47Z" transform="translate(-1.43 -29)"/><path class="cls-4" d="M9.87,173.77A144.77,144.77,0,0,0,151,318.49v.05h207.5A108.58,108.58,0,1,0,291,125,144.79,144.79,0,0,0,9.87,173.77Z" transform="translate(-1.43 -29)"/><path class="cls-5" d="M227.91,246.89a10.84,10.84,0,1,1,21.68,0V390.55a10.84,10.84,0,0,1-21.68,0Z" transform="translate(-1.43 -29)"/><path class="cls-6" d="M311,307.88a10.84,10.84,0,1,1,0,21.68H167.37a10.84,10.84,0,1,1,0-21.68Z" transform="translate(-1.43 -29)"/><path class="cls-7" d="M283.71,348.79a10.85,10.85,0,0,1-15.34,15.34l-78-78a10.84,10.84,0,0,1,15.33-15.33Z" transform="translate(-1.43 -29)"/><path class="cls-8" d="M207.54,364.13a10.84,10.84,0,1,1-15.33-15.34l78-78a10.84,10.84,0,0,1,15.34,15.33Z" transform="translate(-1.43 -29)"/><path class="cls-9" d="M9.87,173.77A144.77,144.77,0,0,0,151,318.49v.05h207.5A108.58,108.58,0,1,0,291,125,144.79,144.79,0,0,0,9.87,173.77Z" transform="translate(-1.43 -29)"/><path class="cls-10" d="M154.64,315.66h-1.78l-1.77,0a141.89,141.89,0,1,1,137.17-189.7l1.36,3.78,3.14-2.5a105.7,105.7,0,1,1,65.76,188.46Z" transform="translate(-1.43 -29)"/><g class="cls-11"><path class="cls-12" d="M6.25,29h470.5V318.54H6.25Z" transform="translate(-1.43 -29)"/><path class="cls-12" d="M1.43,29H467.1V318.54H1.43Z" transform="translate(-1.43 -29)"/></g><path class="cls-13" d="M9.87,173.77A144.77,144.77,0,0,0,151,318.49v.05h207.5A108.58,108.58,0,1,0,291,125,144.79,144.79,0,0,0,9.87,173.77Z" transform="translate(-1.43 -29)"/><path class="cls-14" d="M9.87,173.77A144.77,144.77,0,0,0,151,318.49v.05h207.5A108.58,108.58,0,1,0,291,125,144.79,144.79,0,0,0,9.87,173.77Z" transform="translate(-1.43 -29)"/><g class="cls-11"><path class="cls-12" d="M6.25,29h470.5V318.54H6.25Z" transform="translate(-1.43 -29)"/><path class="cls-12" d="M1.43,29H467.1V318.54H1.43Z" transform="translate(-1.43 -29)"/></g></svg>