<svg id="Capa_1" data-name="Capa 1" xmlns="http://www.w3.org/2000/svg" xmlns:xlink="http://www.w3.org/1999/xlink" viewBox="0 0 526.22 380.64"><defs><style>.cls-1,.cls-4{fill:#f7fcff;}.cls-1,.cls-11{fill-opacity:0.6;}.cls-1,.cls-11,.cls-14,.cls-15,.cls-3,.cls-4{fill-rule:evenodd;}.cls-12,.cls-2{fill:none;}.cls-3{fill:#a8abac;fill-opacity:0.06;}.cls-14,.cls-4{fill-opacity:0.2;}.cls-5{clip-path:url(#clip-path);}.cls-6{fill:url(#Degradado_sin_nombre);}.cls-7{fill:url(#Degradado_sin_nombre_2);}.cls-8{fill:url(#Degradado_sin_nombre_3);}.cls-9{fill-opacity:0.12;fill:url(#Degradado_sin_nombre_4);}.cls-10{fill:url(#Degradado_sin_nombre_5);}.cls-11{fill:#fff;}.cls-12{stroke-opacity:0.8;stroke-width:4px;stroke:url(#Degradado_sin_nombre_6);}.cls-13{mask:url(#mask);}.cls-14{fill:url(#Degradado_sin_nombre_7);}.cls-15{fill-opacity:0.8;fill:url(#Degradado_sin_nombre_8);}</style><clipPath id="clip-path" transform="translate(-0.93 -0.02)"><path class="cls-2" d="M333.47,0h0A109.52,109.52,0,0,1,443,109.52h0A109.52,109.52,0,0,1,333.47,219h0A109.52,109.52,0,0,1,224,109.52h0A109.51,109.51,0,0,1,333.47,0Z"/></clipPath><radialGradient id="Degradado_sin_nombre" cx="-688.74" cy="397.78" r="1.34" gradientTransform="matrix(81.5, -165, -165, -81.5, 122054.46, -80986.29)" gradientUnits="userSpaceOnUse"><stop offset="0.14" stop-color="#f43023"/><stop offset="0.53" stop-color="#f98029"/><stop offset="0.84" stop-color="#fdc912"/><stop offset="1" stop-color="#fff120"/></radialGradient><radialGradient id="Degradado_sin_nombre_2" cx="-687.21" cy="398.36" r="1.34" gradientTransform="matrix(123.06, -98.62, -98.62, -123.06, 124023.93, -18534.65)" gradientUnits="userSpaceOnUse"><stop offset="0.64" stop-color="#f43023"/><stop offset="0.82" stop-color="#f64b25" stop-opacity="0.66"/><stop offset="0.96" stop-color="#f98029" stop-opacity="0"/><stop offset="1" stop-color="#ffec1e" stop-opacity="0"/></radialGradient><radialGradient id="Degradado_sin_nombre_3" cx="-691.64" cy="396.61" r="1.34" gradientTransform="matrix(-36.55, -136.73, -136.73, 36.55, 29337.12, -108796.44)" gradientUnits="userSpaceOnUse"><stop offset="0.61" stop-color="#f43023"/><stop offset="0.77" stop-color="#f64b25" stop-opacity="0.66"/><stop offset="0.85" stop-color="#f98029" stop-opacity="0"/><stop offset="1" stop-color="#ffec1e" stop-opacity="0"/></radialGradient><radialGradient id="Degradado_sin_nombre_4" cx="-688.08" cy="397.19" r="1.34" gradientTransform="matrix(75.98, -128.51, -128.51, -75.98, 103620.84, -58062.81)" gradientUnits="userSpaceOnUse"><stop offset="0.18" stop-color="#ec4530"/><stop offset="0.47" stop-color="#feea45"/><stop offset="0.99" stop-color="#fffbbc"/></radialGradient><radialGradient id="Degradado_sin_nombre_5" cx="-688.08" cy="397.14" r="1.34" gradientTransform="matrix(74.49, -127.51, -127.51, -74.49, 102185.46, -57973.48)" gradientUnits="userSpaceOnUse"><stop offset="0" stop-color="#fff5d0" stop-opacity="0"/><stop offset="0.85" stop-color="#ffea1e" stop-opacity="0"/><stop offset="0.99" stop-color="#fffcd3"/></radialGradient><linearGradient id="Degradado_sin_nombre_6" x1="311.66" y1="324.42" x2="223.88" y2="33.82" gradientTransform="matrix(1, 0, 0, -1, 0, 402)" gradientUnits="userSpaceOnUse"><stop offset="0" stop-color="#fff"/><stop offset="0.44" stop-color="#fff" stop-opacity="0"/></linearGradient><mask id="mask" x="0" y="60.1" width="526.22" height="320.54" maskUnits="userSpaceOnUse"><g transform="translate(-0.93 -0.02)"><g id="mask0_3_154" data-name="mask0 3 154"><path class="cls-1" d="M10.28,220.39A160.28,160.28,0,0,0,166.54,380.61v.05H396.26a120.21,120.21,0,1,0-74.78-214.31,160.3,160.3,0,0,0-311.2,54Z"/></g></g></mask><linearGradient id="Degradado_sin_nombre_7" x1="110.12" y1="175.61" x2="321.81" y2="182.95" gradientTransform="matrix(1, 0, 0, -1, 0, 402)" gradientUnits="userSpaceOnUse"><stop offset="0.03" stop-color="#b1cae2"/><stop offset="1" stop-color="#fff" stop-opacity="0"/></linearGradient><linearGradient id="Degradado_sin_nombre_8" x1="324.95" y1="334.81" x2="264.85" y2="169.19" gradientTransform="matrix(1, 0, 0, -1, 0, 402)" gradientUnits="userSpaceOnUse"><stop offset="0" stop-color="#fff"/><stop offset="1" stop-color="#fff" stop-opacity="0"/></linearGradient></defs><path class="cls-3" d="M10.28,220.39A160.28,160.28,0,0,0,166.54,380.61v.05H396.26a120.21,120.21,0,1,0-74.78-214.31,160.3,160.3,0,0,0-311.2,54Z" transform="translate(-0.93 -0.02)"/><path class="cls-4" d="M10.28,220.39A160.28,160.28,0,0,0,166.54,380.61v.05H396.26a120.21,120.21,0,1,0-74.78-214.31,160.3,160.3,0,0,0-311.2,54Z" transform="translate(-0.93 -0.02)"/><g class="cls-5"><circle class="cls-6" cx="332.56" cy="109.52" r="109.52"/><circle class="cls-7" cx="332.56" cy="109.52" r="109.52"/><circle class="cls-8" cx="332.56" cy="109.52" r="109.52"/><circle class="cls-9" cx="332.56" cy="109.52" r="109.52"/><circle class="cls-10" cx="332.56" cy="109.52" r="109.52"/></g><path class="cls-11" d="M10.28,220.39A160.28,160.28,0,0,0,166.54,380.61v.05H396.26a120.21,120.21,0,1,0-74.78-214.31,160.3,160.3,0,0,0-311.2,54Z" transform="translate(-0.93 -0.02)"/><path class="cls-12" d="M170.55,378h-2l-2-.05A157.6,157.6,0,1,1,319,167.25l1.26,3.51,2.92-2.32A117.53,117.53,0,1,1,396.26,378Z" transform="translate(-0.93 -0.02)"/><g class="cls-13"><path class="cls-2" d="M6.27,60.12H527.15V380.66H6.27Z" transform="translate(-0.93 -0.02)"/><path class="cls-2" d="M.93,60.12H516.47V380.66H.93Z" transform="translate(-0.93 -0.02)"/></g><path class="cls-14" d="M10.28,220.39A160.28,160.28,0,0,0,166.54,380.61v.05H396.26a120.21,120.21,0,1,0-74.78-214.31,160.3,160.3,0,0,0-311.2,54Z" transform="translate(-0.93 -0.02)"/><path class="cls-15" d="M10.28,220.39A160.28,160.28,0,0,0,166.54,380.61v.05H396.26a120.21,120.21,0,1,0-74.78-214.31,160.3,160.3,0,0,0-311.2,54Z" transform="translate(-0.93 -0.02)"/><g class="cls-13"><path class="cls-2" d="M6.27,60.12H527.15V380.66H6.27Z" transform="translate(-0.93 -0.02)"/><path class="cls-2" d="M.93,60.12H516.47V380.66H.93Z" transform="translate(-0.93 -0.02)"/></g></svg>