<?xml version="1.0" encoding="utf-8"?>
<!-- Generator: Adobe Illustrator 25.2.1, SVG Export Plug-In . SVG Version: 6.00 Build 0)  -->
<svg version="1.1" id="Capa_1" xmlns="http://www.w3.org/2000/svg" xmlns:xlink="http://www.w3.org/1999/xlink" x="0px" y="0px"
	 viewBox="0 0 539 530" style="enable-background:new 0 0 539 530;" xml:space="preserve">
<style type="text/css">
	.st0{fill:#A8ABAC;fill-opacity:6.000000e-02;}
	.st1{fill-rule:evenodd;clip-rule:evenodd;fill:#A8ABAC;fill-opacity:6.000000e-02;}
	.st2{fill-rule:evenodd;clip-rule:evenodd;fill:#F7FCFF;fill-opacity:0.2;}
	.st3{fill:url(#SVGID_1_);}
	.st4{fill-rule:evenodd;clip-rule:evenodd;fill:#FFFFFF;fill-opacity:0.6;}
	.st5{fill:none;stroke:url(#SVGID_2_);stroke-width:4;stroke-opacity:0.8;}
	.st6{fill-rule:evenodd;clip-rule:evenodd;fill:#F7FCFF;fill-opacity:0.6;filter:url(#Adobe_OpacityMaskFilter);}
	.st7{mask:url(#mask0_3_109_1_);}
	.st8{fill:none;}
	.st9{fill-rule:evenodd;clip-rule:evenodd;fill:url(#SVGID_3_);fill-opacity:0.2;}
	.st10{fill-rule:evenodd;clip-rule:evenodd;fill:url(#SVGID_4_);fill-opacity:0.8;}
	.st11{fill-rule:evenodd;clip-rule:evenodd;fill:#F7FCFF;fill-opacity:0.6;filter:url(#Adobe_OpacityMaskFilter_1_);}
	.st12{mask:url(#mask1_3_109_1_);}
</style>
<g>
	<path class="st0" d="M288.5,524.6l-92.9-176.9h57.4V214.5l91.5,179.6h-56V524.6z"/>
	<path class="st1" d="M9.8,184.5c0,89.2,71.2,161.7,159.8,163.9v0.1h4.1h230.8c67.9,0,122.9-55,122.9-122.9s-55-122.9-122.9-122.9
		c-28.9,0-55.5,10-76.5,26.7C305.4,65.9,244.8,20.6,173.7,20.6C83.2,20.6,9.8,94,9.8,184.5z"/>
</g>
<path class="st2" d="M9.8,184.5c0,89.2,71.2,161.7,159.8,163.9v0.1h4.1h230.8c67.9,0,122.9-55,122.9-122.9s-55-122.9-122.9-122.9
	c-28.9,0-55.5,10-76.5,26.7C305.4,65.9,244.8,20.6,173.7,20.6C83.2,20.6,9.8,94,9.8,184.5z"/>
<linearGradient id="SVGID_1_" gradientUnits="userSpaceOnUse" x1="270.4187" y1="315.4293" x2="269.7358" y2="50.4536" gradientTransform="matrix(1 0 0 -1 0 530)">
	<stop  offset="0.3177" style="stop-color:#3675D7"/>
	<stop  offset="0.724" style="stop-color:#25CDF4"/>
	<stop  offset="0.8854" style="stop-color:#7CDEE9"/>
	<stop  offset="1" style="stop-color:#67EBF7"/>
</linearGradient>
<path class="st3" d="M288.5,524.6l-92.9-176.9h57.4V214.5l91.5,179.6h-56V524.6z"/>
<g>
	<path class="st4" d="M9.8,184.5c0,89.2,71.2,161.7,159.8,163.9v0.1h4.1h230.8c67.9,0,122.9-55,122.9-122.9s-55-122.9-122.9-122.9
		c-28.9,0-55.5,10-76.5,26.7C305.4,65.9,244.8,20.6,173.7,20.6C83.2,20.6,9.8,94,9.8,184.5z"/>
	
		<linearGradient id="SVGID_2_" gradientUnits="userSpaceOnUse" x1="268.6499" y1="508.6938" x2="268.6499" y2="182.3524" gradientTransform="matrix(1 0 0 -1 0 530)">
		<stop  offset="0.7383" style="stop-color:#FFFFFF;stop-opacity:0"/>
		<stop  offset="1" style="stop-color:#FFFFFF"/>
	</linearGradient>
	<path class="st5" d="M404.6,345.6H173.7c-1.3,0-2.7,0-4,0c0,0,0,0,0,0c-87.1-2.1-157.1-73.5-157.1-161.1
		c0-89,72.2-161.2,161.2-161.2c69.9,0,129.5,44.5,151.8,106.8l1.3,3.6l3-2.4c20.5-16.3,46.5-26.1,74.8-26.1
		c66.4,0,120.2,53.8,120.2,120.2S470.9,345.6,404.6,345.6z"/>
</g>
<defs>
	<filter id="Adobe_OpacityMaskFilter" filterUnits="userSpaceOnUse" x="0.3" y="20.6" width="538.1" height="327.8">
		<feColorMatrix  type="matrix" values="1 0 0 0 0  0 1 0 0 0  0 0 1 0 0  0 0 0 1 0"/>
	</filter>
</defs>
<mask maskUnits="userSpaceOnUse" x="0.3" y="20.6" width="538.1" height="327.8" id="mask0_3_109_1_">
	<path class="st6" d="M9.8,184.5c0,89.2,71.2,161.7,159.8,163.9v0.1h4.1h230.8c67.9,0,122.9-55,122.9-122.9s-55-122.9-122.9-122.9
		c-28.9,0-55.5,10-76.5,26.7C305.4,65.9,244.8,20.6,173.7,20.6C83.2,20.6,9.8,94,9.8,184.5z"/>
</mask>
<g class="st7">
	<path class="st8" d="M5.7,20.6h532.7v327.8H5.7V20.6z"/>
	<path class="st8" d="M0.3,20.6h527.2v327.8H0.3V20.6z"/>
</g>
<g>
	
		<linearGradient id="SVGID_3_" gradientUnits="userSpaceOnUse" x1="111.919" y1="339.3861" x2="328.4068" y2="346.8983" gradientTransform="matrix(1 0 0 -1 0 530)">
		<stop  offset="2.541740e-02" style="stop-color:#B1CAE2"/>
		<stop  offset="1" style="stop-color:#FFFFFF;stop-opacity:0"/>
	</linearGradient>
	<path class="st9" d="M9.8,184.5c0,89.2,71.2,161.7,159.8,163.9v0.1h4.1h230.8c67.9,0,122.9-55,122.9-122.9s-55-122.9-122.9-122.9
		c-28.9,0-55.5,10-76.5,26.7C305.4,65.9,244.8,20.6,173.7,20.6C83.2,20.6,9.8,94,9.8,184.5z"/>
</g>
<g>
	
		<linearGradient id="SVGID_4_" gradientUnits="userSpaceOnUse" x1="389.5448" y1="482.7634" x2="286.4229" y2="354.3731" gradientTransform="matrix(1 0 0 -1 0 530)">
		<stop  offset="0" style="stop-color:#FFFFFF"/>
		<stop  offset="1" style="stop-color:#FFFFFF;stop-opacity:0"/>
	</linearGradient>
	<path class="st10" d="M9.8,184.5c0,89.2,71.2,161.7,159.8,163.9v0.1h4.1h230.8c67.9,0,122.9-55,122.9-122.9s-55-122.9-122.9-122.9
		c-28.9,0-55.5,10-76.5,26.7C305.4,65.9,244.8,20.6,173.7,20.6C83.2,20.6,9.8,94,9.8,184.5z"/>
</g>
<defs>
	<filter id="Adobe_OpacityMaskFilter_1_" filterUnits="userSpaceOnUse" x="0.3" y="20.6" width="538.1" height="327.8">
		<feColorMatrix  type="matrix" values="1 0 0 0 0  0 1 0 0 0  0 0 1 0 0  0 0 0 1 0"/>
	</filter>
</defs>
<mask maskUnits="userSpaceOnUse" x="0.3" y="20.6" width="538.1" height="327.8" id="mask1_3_109_1_">
	<path class="st11" d="M9.8,184.5c0,89.2,71.2,161.7,159.8,163.9v0.1h4.1h230.8c67.9,0,122.9-55,122.9-122.9s-55-122.9-122.9-122.9
		c-28.9,0-55.5,10-76.5,26.7C305.4,65.9,244.8,20.6,173.7,20.6C83.2,20.6,9.8,94,9.8,184.5z"/>
</mask>
<g class="st12">
	<path class="st8" d="M5.7,20.6h532.7v327.8H5.7V20.6z"/>
	<path class="st8" d="M0.3,20.6h527.2v327.8H0.3V20.6z"/>
</g>
</svg>
